<?xml version="1.0" encoding="utf-8" standalone="no"?>
<!DOCTYPE svg PUBLIC "-//W3C//DTD SVG 1.1//EN"
  "http://www.w3.org/Graphics/SVG/1.1/DTD/svg11.dtd">
<!-- Created with matplotlib (https://matplotlib.org/) -->
<svg height="376.085875pt" version="1.1" viewBox="0 0 1099.643125 376.085875" width="1099.643125pt" xmlns="http://www.w3.org/2000/svg" xmlns:xlink="http://www.w3.org/1999/xlink">
 <defs>
  <style type="text/css">
*{stroke-linecap:butt;stroke-linejoin:round;}
  </style>
 </defs>
 <g id="figure_1">
  <g id="patch_1">
   <path d="M 0 376.085875
L 1099.643125 376.085875
L 1099.643125 0
L 0 0
z
" style="fill:none;"/>
  </g>
  <g id="axes_1">
   <g id="patch_2">
    <path d="M 29.883125 314.055937
L 512.013125 314.055937
L 512.013125 26.475937
L 29.883125 26.475937
z
" style="fill:none;"/>
   </g>
   <g id="PolyCollection_1">
    <defs>
     <path d="M 29.883125 -230.731366
L 29.883125 -230.731366
L 64.320982 -242.451614
L 98.758839 -261.066206
L 133.196696 -275.616002
L 167.634554 -286.748482
L 202.072411 -291.797573
L 236.510268 -294.832774
L 270.948125 -298.169124
L 305.385982 -299.700206
L 339.823839 -300.34416
L 374.261696 -300.766012
L 408.699554 -300.916272
L 443.137411 -301.006972
L 477.575268 -301.043636
L 512.013125 -301.043728
L 512.013125 -302.320552
L 512.013125 -302.320552
L 477.575268 -302.322747
L 443.137411 -302.351249
L 408.699554 -302.414962
L 374.261696 -302.572946
L 339.823839 -302.972585
L 305.385982 -303.870071
L 270.948125 -306.079535
L 236.510268 -312.922626
L 202.072411 -321.934005
L 167.634554 -318.577991
L 133.196696 -301.558347
L 98.758839 -278.655678
L 64.320982 -249.277695
L 29.883125 -230.731366
z
" id="m2952839a07" style="stroke:#d62728;stroke-opacity:0.2;"/>
    </defs>
    <g clip-path="url(#p158bc682a3)">
     <use style="fill:#d62728;fill-opacity:0.2;stroke:#d62728;stroke-opacity:0.2;" x="0" xlink:href="#m2952839a07" y="376.085875"/>
    </g>
   </g>
   <g id="PolyCollection_2">
    <defs>
     <path d="M 29.883125 -110.905069
L 29.883125 -110.905069
L 64.320982 -128.352447
L 98.758839 -151.871145
L 133.196696 -172.271765
L 167.634554 -194.374145
L 202.072411 -215.880446
L 236.510268 -235.727436
L 270.948125 -254.377409
L 305.385982 -270.211771
L 339.823839 -282.359729
L 374.261696 -290.596638
L 408.699554 -295.529117
L 443.137411 -298.272187
L 477.575268 -299.696399
L 512.013125 -300.393703
L 512.013125 -301.66807
L 512.013125 -301.66807
L 477.575268 -300.964434
L 443.137411 -299.575642
L 408.699554 -296.884334
L 374.261696 -291.991743
L 339.823839 -283.869953
L 305.385982 -271.740563
L 270.948125 -255.947448
L 236.510268 -237.393379
L 202.072411 -217.535773
L 167.634554 -195.997331
L 133.196696 -173.903516
L 98.758839 -153.505504
L 64.320982 -129.492539
L 29.883125 -110.905069
z
" id="m6739057cb1" style="stroke:#1f77b4;stroke-opacity:0.2;"/>
    </defs>
    <g clip-path="url(#p158bc682a3)">
     <use style="fill:#1f77b4;fill-opacity:0.2;stroke:#1f77b4;stroke-opacity:0.2;" x="0" xlink:href="#m6739057cb1" y="376.085875"/>
    </g>
   </g>
   <g id="PolyCollection_3">
    <defs>
     <path d="M 29.883125 -143.959488
L 29.883125 -143.959488
L 64.320982 -160.298103
L 98.758839 -183.208043
L 133.196696 -203.39226
L 167.634554 -225.078951
L 202.072411 -245.478901
L 236.510268 -263.202884
L 270.948125 -278.210304
L 305.385982 -288.808917
L 339.823839 -295.063
L 374.261696 -298.410696
L 408.699554 -299.909325
L 443.137411 -300.583503
L 477.575268 -300.871547
L 512.013125 -300.972607
L 512.013125 -302.253169
L 512.013125 -302.253169
L 477.575268 -302.154397
L 443.137411 -301.939532
L 408.699554 -301.39182
L 374.261696 -300.113131
L 339.823839 -297.259948
L 305.385982 -291.544614
L 270.948125 -281.669868
L 236.510268 -267.402546
L 202.072411 -249.936526
L 167.634554 -229.595095
L 133.196696 -208.100498
L 98.758839 -187.923806
L 64.320982 -163.587714
L 29.883125 -143.959488
z
" id="md044de236f" style="stroke:#2ca02c;stroke-opacity:0.2;"/>
    </defs>
    <g clip-path="url(#p158bc682a3)">
     <use style="fill:#2ca02c;fill-opacity:0.2;stroke:#2ca02c;stroke-opacity:0.2;" x="0" xlink:href="#md044de236f" y="376.085875"/>
    </g>
   </g>
   <g id="matplotlib.axis_1">
    <g id="xtick_1">
     <g id="text_1">
      <!-- $\mathdefault{10^{1}}$ -->
      <defs>
       <path d="M 12.40625 8.296875
L 28.515625 8.296875
L 28.515625 63.921875
L 10.984375 60.40625
L 10.984375 69.390625
L 28.421875 72.90625
L 38.28125 72.90625
L 38.28125 8.296875
L 54.390625 8.296875
L 54.390625 0
L 12.40625 0
z
" id="DejaVuSans-49"/>
       <path d="M 31.78125 66.40625
Q 24.171875 66.40625 20.328125 58.90625
Q 16.5 51.421875 16.5 36.375
Q 16.5 21.390625 20.328125 13.890625
Q 24.171875 6.390625 31.78125 6.390625
Q 39.453125 6.390625 43.28125 13.890625
Q 47.125 21.390625 47.125 36.375
Q 47.125 51.421875 43.28125 58.90625
Q 39.453125 66.40625 31.78125 66.40625
z
M 31.78125 74.21875
Q 44.046875 74.21875 50.515625 64.515625
Q 56.984375 54.828125 56.984375 36.375
Q 56.984375 17.96875 50.515625 8.265625
Q 44.046875 -1.421875 31.78125 -1.421875
Q 19.53125 -1.421875 13.0625 8.265625
Q 6.59375 17.96875 6.59375 36.375
Q 6.59375 54.828125 13.0625 64.515625
Q 19.53125 74.21875 31.78125 74.21875
z
" id="DejaVuSans-48"/>
      </defs>
      <g transform="translate(105.717125 341.336281)scale(0.234 -0.234)">
       <use transform="translate(0 0.684375)" xlink:href="#DejaVuSans-49"/>
       <use transform="translate(63.623047 0.684375)" xlink:href="#DejaVuSans-48"/>
       <use transform="translate(128.203125 38.965625)scale(0.7)" xlink:href="#DejaVuSans-49"/>
      </g>
     </g>
    </g>
    <g id="xtick_2">
     <g id="text_2">
      <!-- $\mathdefault{10^{2}}$ -->
      <defs>
       <path d="M 19.1875 8.296875
L 53.609375 8.296875
L 53.609375 0
L 7.328125 0
L 7.328125 8.296875
Q 12.9375 14.109375 22.625 23.890625
Q 32.328125 33.6875 34.8125 36.53125
Q 39.546875 41.84375 41.421875 45.53125
Q 43.3125 49.21875 43.3125 52.78125
Q 43.3125 58.59375 39.234375 62.25
Q 35.15625 65.921875 28.609375 65.921875
Q 23.96875 65.921875 18.8125 64.3125
Q 13.671875 62.703125 7.8125 59.421875
L 7.8125 69.390625
Q 13.765625 71.78125 18.9375 73
Q 24.125 74.21875 28.421875 74.21875
Q 39.75 74.21875 46.484375 68.546875
Q 53.21875 62.890625 53.21875 53.421875
Q 53.21875 48.921875 51.53125 44.890625
Q 49.859375 40.875 45.40625 35.40625
Q 44.1875 33.984375 37.640625 27.21875
Q 31.109375 20.453125 19.1875 8.296875
z
" id="DejaVuSans-50"/>
      </defs>
      <g transform="translate(202.143125 341.336281)scale(0.234 -0.234)">
       <use transform="translate(0 0.765625)" xlink:href="#DejaVuSans-49"/>
       <use transform="translate(63.623047 0.765625)" xlink:href="#DejaVuSans-48"/>
       <use transform="translate(128.203125 39.046875)scale(0.7)" xlink:href="#DejaVuSans-50"/>
      </g>
     </g>
    </g>
    <g id="xtick_3">
     <g id="text_3">
      <!-- $\mathdefault{10^{3}}$ -->
      <defs>
       <path d="M 40.578125 39.3125
Q 47.65625 37.796875 51.625 33
Q 55.609375 28.21875 55.609375 21.1875
Q 55.609375 10.40625 48.1875 4.484375
Q 40.765625 -1.421875 27.09375 -1.421875
Q 22.515625 -1.421875 17.65625 -0.515625
Q 12.796875 0.390625 7.625 2.203125
L 7.625 11.71875
Q 11.71875 9.328125 16.59375 8.109375
Q 21.484375 6.890625 26.8125 6.890625
Q 36.078125 6.890625 40.9375 10.546875
Q 45.796875 14.203125 45.796875 21.1875
Q 45.796875 27.640625 41.28125 31.265625
Q 36.765625 34.90625 28.71875 34.90625
L 20.21875 34.90625
L 20.21875 43.015625
L 29.109375 43.015625
Q 36.375 43.015625 40.234375 45.921875
Q 44.09375 48.828125 44.09375 54.296875
Q 44.09375 59.90625 40.109375 62.90625
Q 36.140625 65.921875 28.71875 65.921875
Q 24.65625 65.921875 20.015625 65.03125
Q 15.375 64.15625 9.8125 62.3125
L 9.8125 71.09375
Q 15.4375 72.65625 20.34375 73.4375
Q 25.25 74.21875 29.59375 74.21875
Q 40.828125 74.21875 47.359375 69.109375
Q 53.90625 64.015625 53.90625 55.328125
Q 53.90625 49.265625 50.4375 45.09375
Q 46.96875 40.921875 40.578125 39.3125
z
" id="DejaVuSans-51"/>
      </defs>
      <g transform="translate(298.569125 341.336281)scale(0.234 -0.234)">
       <use transform="translate(0 0.765625)" xlink:href="#DejaVuSans-49"/>
       <use transform="translate(63.623047 0.765625)" xlink:href="#DejaVuSans-48"/>
       <use transform="translate(128.203125 39.046875)scale(0.7)" xlink:href="#DejaVuSans-51"/>
      </g>
     </g>
    </g>
    <g id="xtick_4">
     <g id="text_4">
      <!-- $\mathdefault{10^{4}}$ -->
      <defs>
       <path d="M 37.796875 64.3125
L 12.890625 25.390625
L 37.796875 25.390625
z
M 35.203125 72.90625
L 47.609375 72.90625
L 47.609375 25.390625
L 58.015625 25.390625
L 58.015625 17.1875
L 47.609375 17.1875
L 47.609375 0
L 37.796875 0
L 37.796875 17.1875
L 4.890625 17.1875
L 4.890625 26.703125
z
" id="DejaVuSans-52"/>
      </defs>
      <g transform="translate(394.995125 341.336281)scale(0.234 -0.234)">
       <use transform="translate(0 0.684375)" xlink:href="#DejaVuSans-49"/>
       <use transform="translate(63.623047 0.684375)" xlink:href="#DejaVuSans-48"/>
       <use transform="translate(128.203125 38.965625)scale(0.7)" xlink:href="#DejaVuSans-52"/>
      </g>
     </g>
    </g>
    <g id="xtick_5"/>
    <g id="xtick_6"/>
    <g id="xtick_7"/>
    <g id="xtick_8"/>
    <g id="xtick_9"/>
    <g id="xtick_10"/>
    <g id="xtick_11"/>
    <g id="xtick_12"/>
    <g id="xtick_13"/>
    <g id="xtick_14"/>
    <g id="xtick_15"/>
    <g id="xtick_16"/>
    <g id="xtick_17"/>
    <g id="xtick_18"/>
    <g id="xtick_19"/>
    <g id="xtick_20"/>
    <g id="xtick_21"/>
    <g id="xtick_22"/>
    <g id="xtick_23"/>
    <g id="xtick_24"/>
    <g id="xtick_25"/>
    <g id="xtick_26"/>
    <g id="xtick_27"/>
    <g id="xtick_28"/>
    <g id="xtick_29"/>
    <g id="xtick_30"/>
    <g id="xtick_31"/>
    <g id="xtick_32"/>
    <g id="xtick_33"/>
    <g id="xtick_34"/>
    <g id="xtick_35"/>
    <g id="xtick_36"/>
    <g id="xtick_37"/>
    <g id="xtick_38"/>
    <g id="xtick_39"/>
    <g id="xtick_40"/>
    <g id="xtick_41"/>
    <g id="xtick_42"/>
    <g id="xtick_43"/>
    <g id="xtick_44"/>
    <g id="text_5">
     <!-- #samples -->
     <defs>
      <path d="M 51.125 44
L 36.921875 44
L 32.8125 27.6875
L 47.125 27.6875
z
M 43.796875 71.78125
L 38.71875 51.515625
L 52.984375 51.515625
L 58.109375 71.78125
L 65.921875 71.78125
L 60.890625 51.515625
L 76.125 51.515625
L 76.125 44
L 58.984375 44
L 54.984375 27.6875
L 70.515625 27.6875
L 70.515625 20.21875
L 53.078125 20.21875
L 48 0
L 40.1875 0
L 45.21875 20.21875
L 30.90625 20.21875
L 25.875 0
L 18.015625 0
L 23.09375 20.21875
L 7.71875 20.21875
L 7.71875 27.6875
L 24.90625 27.6875
L 29 44
L 13.28125 44
L 13.28125 51.515625
L 30.90625 51.515625
L 35.890625 71.78125
z
" id="DejaVuSans-35"/>
      <path d="M 44.28125 53.078125
L 44.28125 44.578125
Q 40.484375 46.53125 36.375 47.5
Q 32.28125 48.484375 27.875 48.484375
Q 21.1875 48.484375 17.84375 46.4375
Q 14.5 44.390625 14.5 40.28125
Q 14.5 37.15625 16.890625 35.375
Q 19.28125 33.59375 26.515625 31.984375
L 29.59375 31.296875
Q 39.15625 29.25 43.1875 25.515625
Q 47.21875 21.78125 47.21875 15.09375
Q 47.21875 7.46875 41.1875 3.015625
Q 35.15625 -1.421875 24.609375 -1.421875
Q 20.21875 -1.421875 15.453125 -0.5625
Q 10.6875 0.296875 5.421875 2
L 5.421875 11.28125
Q 10.40625 8.6875 15.234375 7.390625
Q 20.0625 6.109375 24.8125 6.109375
Q 31.15625 6.109375 34.5625 8.28125
Q 37.984375 10.453125 37.984375 14.40625
Q 37.984375 18.0625 35.515625 20.015625
Q 33.0625 21.96875 24.703125 23.78125
L 21.578125 24.515625
Q 13.234375 26.265625 9.515625 29.90625
Q 5.8125 33.546875 5.8125 39.890625
Q 5.8125 47.609375 11.28125 51.796875
Q 16.75 56 26.8125 56
Q 31.78125 56 36.171875 55.265625
Q 40.578125 54.546875 44.28125 53.078125
z
" id="DejaVuSans-115"/>
      <path d="M 34.28125 27.484375
Q 23.390625 27.484375 19.1875 25
Q 14.984375 22.515625 14.984375 16.5
Q 14.984375 11.71875 18.140625 8.90625
Q 21.296875 6.109375 26.703125 6.109375
Q 34.1875 6.109375 38.703125 11.40625
Q 43.21875 16.703125 43.21875 25.484375
L 43.21875 27.484375
z
M 52.203125 31.203125
L 52.203125 0
L 43.21875 0
L 43.21875 8.296875
Q 40.140625 3.328125 35.546875 0.953125
Q 30.953125 -1.421875 24.3125 -1.421875
Q 15.921875 -1.421875 10.953125 3.296875
Q 6 8.015625 6 15.921875
Q 6 25.140625 12.171875 29.828125
Q 18.359375 34.515625 30.609375 34.515625
L 43.21875 34.515625
L 43.21875 35.40625
Q 43.21875 41.609375 39.140625 45
Q 35.0625 48.390625 27.6875 48.390625
Q 23 48.390625 18.546875 47.265625
Q 14.109375 46.140625 10.015625 43.890625
L 10.015625 52.203125
Q 14.9375 54.109375 19.578125 55.046875
Q 24.21875 56 28.609375 56
Q 40.484375 56 46.34375 49.84375
Q 52.203125 43.703125 52.203125 31.203125
z
" id="DejaVuSans-97"/>
      <path d="M 52 44.1875
Q 55.375 50.25 60.0625 53.125
Q 64.75 56 71.09375 56
Q 79.640625 56 84.28125 50.015625
Q 88.921875 44.046875 88.921875 33.015625
L 88.921875 0
L 79.890625 0
L 79.890625 32.71875
Q 79.890625 40.578125 77.09375 44.375
Q 74.3125 48.1875 68.609375 48.1875
Q 61.625 48.1875 57.5625 43.546875
Q 53.515625 38.921875 53.515625 30.90625
L 53.515625 0
L 44.484375 0
L 44.484375 32.71875
Q 44.484375 40.625 41.703125 44.40625
Q 38.921875 48.1875 33.109375 48.1875
Q 26.21875 48.1875 22.15625 43.53125
Q 18.109375 38.875 18.109375 30.90625
L 18.109375 0
L 9.078125 0
L 9.078125 54.6875
L 18.109375 54.6875
L 18.109375 46.1875
Q 21.1875 51.21875 25.484375 53.609375
Q 29.78125 56 35.6875 56
Q 41.65625 56 45.828125 52.96875
Q 50 49.953125 52 44.1875
z
" id="DejaVuSans-109"/>
      <path d="M 18.109375 8.203125
L 18.109375 -20.796875
L 9.078125 -20.796875
L 9.078125 54.6875
L 18.109375 54.6875
L 18.109375 46.390625
Q 20.953125 51.265625 25.265625 53.625
Q 29.59375 56 35.59375 56
Q 45.5625 56 51.78125 48.09375
Q 58.015625 40.1875 58.015625 27.296875
Q 58.015625 14.40625 51.78125 6.484375
Q 45.5625 -1.421875 35.59375 -1.421875
Q 29.59375 -1.421875 25.265625 0.953125
Q 20.953125 3.328125 18.109375 8.203125
z
M 48.6875 27.296875
Q 48.6875 37.203125 44.609375 42.84375
Q 40.53125 48.484375 33.40625 48.484375
Q 26.265625 48.484375 22.1875 42.84375
Q 18.109375 37.203125 18.109375 27.296875
Q 18.109375 17.390625 22.1875 11.75
Q 26.265625 6.109375 33.40625 6.109375
Q 40.53125 6.109375 44.609375 11.75
Q 48.6875 17.390625 48.6875 27.296875
z
" id="DejaVuSans-112"/>
      <path d="M 9.421875 75.984375
L 18.40625 75.984375
L 18.40625 0
L 9.421875 0
z
" id="DejaVuSans-108"/>
      <path d="M 56.203125 29.59375
L 56.203125 25.203125
L 14.890625 25.203125
Q 15.484375 15.921875 20.484375 11.0625
Q 25.484375 6.203125 34.421875 6.203125
Q 39.59375 6.203125 44.453125 7.46875
Q 49.3125 8.734375 54.109375 11.28125
L 54.109375 2.78125
Q 49.265625 0.734375 44.1875 -0.34375
Q 39.109375 -1.421875 33.890625 -1.421875
Q 20.796875 -1.421875 13.15625 6.1875
Q 5.515625 13.8125 5.515625 26.8125
Q 5.515625 40.234375 12.765625 48.109375
Q 20.015625 56 32.328125 56
Q 43.359375 56 49.78125 48.890625
Q 56.203125 41.796875 56.203125 29.59375
z
M 47.21875 32.234375
Q 47.125 39.59375 43.09375 43.984375
Q 39.0625 48.390625 32.421875 48.390625
Q 24.90625 48.390625 20.390625 44.140625
Q 15.875 39.890625 15.1875 32.171875
z
" id="DejaVuSans-101"/>
     </defs>
     <g transform="translate(206.017187 369.958687)scale(0.26 -0.26)">
      <use xlink:href="#DejaVuSans-35"/>
      <use x="83.789062" xlink:href="#DejaVuSans-115"/>
      <use x="135.888672" xlink:href="#DejaVuSans-97"/>
      <use x="197.167969" xlink:href="#DejaVuSans-109"/>
      <use x="294.580078" xlink:href="#DejaVuSans-112"/>
      <use x="358.056641" xlink:href="#DejaVuSans-108"/>
      <use x="385.839844" xlink:href="#DejaVuSans-101"/>
      <use x="447.363281" xlink:href="#DejaVuSans-115"/>
     </g>
    </g>
   </g>
   <g id="matplotlib.axis_2">
    <g id="ytick_1"/>
    <g id="ytick_2"/>
    <g id="ytick_3"/>
    <g id="text_6">
     <!-- bias -->
     <defs>
      <path d="M 48.6875 27.296875
Q 48.6875 37.203125 44.609375 42.84375
Q 40.53125 48.484375 33.40625 48.484375
Q 26.265625 48.484375 22.1875 42.84375
Q 18.109375 37.203125 18.109375 27.296875
Q 18.109375 17.390625 22.1875 11.75
Q 26.265625 6.109375 33.40625 6.109375
Q 40.53125 6.109375 44.609375 11.75
Q 48.6875 17.390625 48.6875 27.296875
z
M 18.109375 46.390625
Q 20.953125 51.265625 25.265625 53.625
Q 29.59375 56 35.59375 56
Q 45.5625 56 51.78125 48.09375
Q 58.015625 40.1875 58.015625 27.296875
Q 58.015625 14.40625 51.78125 6.484375
Q 45.5625 -1.421875 35.59375 -1.421875
Q 29.59375 -1.421875 25.265625 0.953125
Q 20.953125 3.328125 18.109375 8.203125
L 18.109375 0
L 9.078125 0
L 9.078125 75.984375
L 18.109375 75.984375
z
" id="DejaVuSans-98"/>
      <path d="M 9.421875 54.6875
L 18.40625 54.6875
L 18.40625 0
L 9.421875 0
z
M 9.421875 75.984375
L 18.40625 75.984375
L 18.40625 64.59375
L 9.421875 64.59375
z
" id="DejaVuSans-105"/>
     </defs>
     <g transform="translate(20.475938 196.869219)rotate(-90)scale(0.26 -0.26)">
      <use xlink:href="#DejaVuSans-98"/>
      <use x="63.476562" xlink:href="#DejaVuSans-105"/>
      <use x="91.259766" xlink:href="#DejaVuSans-97"/>
      <use x="152.539062" xlink:href="#DejaVuSans-115"/>
     </g>
    </g>
   </g>
   <g id="line2d_1">
    <path clip-path="url(#p158bc682a3)" d="M 29.883125 145.354509
L 64.320982 130.221221
L 98.758839 106.224933
L 133.196696 87.498701
L 167.634554 73.422639
L 202.072411 69.220086
L 236.510268 72.208175
L 270.948125 73.961546
L 305.385982 74.300736
L 339.823839 74.427502
L 374.261696 74.416396
L 408.699554 74.420258
L 443.137411 74.406764
L 477.575268 74.402684
L 512.013125 74.403735
" style="fill:none;stroke:#d62728;stroke-linecap:square;stroke-width:8;"/>
   </g>
   <g id="line2d_2">
    <path clip-path="url(#p158bc682a3)" d="M 29.883125 145.354509
L 64.320982 133.634261
L 98.758839 115.019669
L 133.196696 100.469873
L 167.634554 89.337393
L 202.072411 84.288302
L 236.510268 81.253101
L 270.948125 77.916751
L 305.385982 76.385669
L 339.823839 75.741715
L 374.261696 75.319863
L 408.699554 75.169603
L 443.137411 75.078903
L 477.575268 75.042239
L 512.013125 75.042147
" style="fill:none;stroke:#d62728;stroke-linecap:square;stroke-opacity:0.2;stroke-width:2;"/>
   </g>
   <g id="line2d_3">
    <path clip-path="url(#p158bc682a3)" d="M 29.883125 145.354509
L 64.320982 126.80818
L 98.758839 97.430197
L 133.196696 74.527528
L 167.634554 57.507884
L 202.072411 54.15187
L 236.510268 63.163249
L 270.948125 70.00634
L 305.385982 72.215804
L 339.823839 73.11329
L 374.261696 73.512929
L 408.699554 73.670913
L 443.137411 73.734626
L 477.575268 73.763128
L 512.013125 73.765323
" style="fill:none;stroke:#d62728;stroke-linecap:square;stroke-opacity:0.2;stroke-width:2;"/>
   </g>
   <g id="line2d_4">
    <path clip-path="url(#p158bc682a3)" d="M 29.883125 265.180806
L 64.320982 247.163382
L 98.758839 223.39755
L 133.196696 202.998234
L 167.634554 180.900137
L 202.072411 159.377766
L 236.510268 139.525467
L 270.948125 120.923446
L 305.385982 105.109708
L 339.823839 92.971034
L 374.261696 84.791684
L 408.699554 79.87915
L 443.137411 77.16196
L 477.575268 75.755458
L 512.013125 75.054989
" style="fill:none;stroke:#1f77b4;stroke-linecap:square;stroke-width:8;"/>
   </g>
   <g id="line2d_5">
    <path clip-path="url(#p158bc682a3)" d="M 29.883125 265.180806
L 64.320982 247.733428
L 98.758839 224.21473
L 133.196696 203.81411
L 167.634554 181.71173
L 202.072411 160.205429
L 236.510268 140.358439
L 270.948125 121.708466
L 305.385982 105.874104
L 339.823839 93.726146
L 374.261696 85.489237
L 408.699554 80.556758
L 443.137411 77.813688
L 477.575268 76.389476
L 512.013125 75.692172
" style="fill:none;stroke:#1f77b4;stroke-linecap:square;stroke-opacity:0.2;stroke-width:2;"/>
   </g>
   <g id="line2d_6">
    <path clip-path="url(#p158bc682a3)" d="M 29.883125 265.180806
L 64.320982 246.593336
L 98.758839 222.580371
L 133.196696 202.182359
L 167.634554 180.088544
L 202.072411 158.550102
L 236.510268 138.692496
L 270.948125 120.138427
L 305.385982 104.345312
L 339.823839 92.215922
L 374.261696 84.094132
L 408.699554 79.201541
L 443.137411 76.510233
L 477.575268 75.121441
L 512.013125 74.417805
" style="fill:none;stroke:#1f77b4;stroke-linecap:square;stroke-opacity:0.2;stroke-width:2;"/>
   </g>
   <g id="line2d_7">
    <path clip-path="url(#p158bc682a3)" d="M 29.883125 232.126387
L 64.320982 214.142966
L 98.758839 190.519951
L 133.196696 170.339496
L 167.634554 148.748852
L 202.072411 128.378161
L 236.510268 110.78316
L 270.948125 96.145789
L 305.385982 85.909109
L 339.823839 79.924401
L 374.261696 76.823961
L 408.699554 75.435302
L 443.137411 74.824357
L 477.575268 74.572903
L 512.013125 74.472987
" style="fill:none;stroke:#2ca02c;stroke-linecap:square;stroke-width:8;"/>
   </g>
   <g id="line2d_8">
    <path clip-path="url(#p158bc682a3)" d="M 29.883125 232.126387
L 64.320982 215.787772
L 98.758839 192.877832
L 133.196696 172.693615
L 167.634554 151.006924
L 202.072411 130.606974
L 236.510268 112.882991
L 270.948125 97.875571
L 305.385982 87.276958
L 339.823839 81.022875
L 374.261696 77.675179
L 408.699554 76.17655
L 443.137411 75.502372
L 477.575268 75.214328
L 512.013125 75.113268
" style="fill:none;stroke:#2ca02c;stroke-linecap:square;stroke-opacity:0.2;stroke-width:2;"/>
   </g>
   <g id="line2d_9">
    <path clip-path="url(#p158bc682a3)" d="M 29.883125 232.126387
L 64.320982 212.498161
L 98.758839 188.162069
L 133.196696 167.985377
L 167.634554 146.49078
L 202.072411 126.149349
L 236.510268 108.683329
L 270.948125 94.416007
L 305.385982 84.541261
L 339.823839 78.825927
L 374.261696 75.972744
L 408.699554 74.694055
L 443.137411 74.146343
L 477.575268 73.931478
L 512.013125 73.832706
" style="fill:none;stroke:#2ca02c;stroke-linecap:square;stroke-opacity:0.2;stroke-width:2;"/>
   </g>
   <g id="line2d_10">
    <path clip-path="url(#p158bc682a3)" d="M 126.309125 314.055937
L 126.309125 26.475937
" style="fill:none;stroke:#000000;stroke-dasharray:7.4,3.2;stroke-dashoffset:0;stroke-opacity:0.2;stroke-width:2;"/>
   </g>
   <g id="line2d_11">
    <path clip-path="url(#p158bc682a3)" d="M 222.735125 314.055937
L 222.735125 26.475937
" style="fill:none;stroke:#000000;stroke-dasharray:7.4,3.2;stroke-dashoffset:0;stroke-opacity:0.2;stroke-width:2;"/>
   </g>
   <g id="line2d_12">
    <path clip-path="url(#p158bc682a3)" d="M 319.161125 314.055937
L 319.161125 26.475937
" style="fill:none;stroke:#000000;stroke-dasharray:7.4,3.2;stroke-dashoffset:0;stroke-opacity:0.2;stroke-width:2;"/>
   </g>
   <g id="line2d_13">
    <path clip-path="url(#p158bc682a3)" d="M 415.587125 314.055937
L 415.587125 26.475937
" style="fill:none;stroke:#000000;stroke-dasharray:7.4,3.2;stroke-dashoffset:0;stroke-opacity:0.2;stroke-width:2;"/>
   </g>
   <g id="line2d_14">
    <path clip-path="url(#p158bc682a3)" d="M 29.883125 266.125937
L 512.013125 266.125937
" style="fill:none;stroke:#000000;stroke-dasharray:7.4,3.2;stroke-dashoffset:0;stroke-opacity:0.2;stroke-width:2;"/>
   </g>
   <g id="line2d_15">
    <path clip-path="url(#p158bc682a3)" d="M 29.883125 170.265937
L 512.013125 170.265937
" style="fill:none;stroke:#000000;stroke-dasharray:7.4,3.2;stroke-dashoffset:0;stroke-opacity:0.2;stroke-width:2;"/>
   </g>
   <g id="line2d_16">
    <path clip-path="url(#p158bc682a3)" d="M 29.883125 74.405937
L 512.013125 74.405937
" style="fill:none;stroke:#000000;stroke-dasharray:7.4,3.2;stroke-dashoffset:0;stroke-opacity:0.2;stroke-width:2;"/>
   </g>
   <g id="text_7">
    <!-- $\alpha = 0.1$ -->
    <defs>
     <path d="M 40.921875 25.4375
L 40.96875 36.71875
Q 41.015625 48.25 32.328125 48.296875
Q 25.828125 48.34375 21.78125 42.921875
Q 16.703125 36.234375 14.984375 27.296875
Q 12.890625 16.546875 15.53125 11.421875
Q 18.265625 6.203125 24.171875 6.203125
Q 30.71875 6.203125 36.234375 16.609375
z
M 33.84375 55.90625
Q 49.078125 56.15625 48.875 40.375
Q 48.875 40.375 56.5 54.6875
L 64.5 54.6875
L 48.734375 25.046875
L 48.578125 14.359375
Q 48.578125 11.96875 49.90625 9.96875
Q 51.421875 7.625 52.984375 7.625
L 57.328125 7.625
L 55.859375 0
L 50.4375 0
Q 45.84375 0 42.53125 4.109375
Q 40.96875 6.15625 40.921875 10.453125
Q 37.75 5.21875 32.28125 0.78125
Q 29.6875 -1.265625 22.703125 -1.21875
Q 11.28125 -1.125 7.125 6.203125
Q 2.875 13.8125 5.515625 27.296875
Q 8.34375 41.796875 15.765625 48.390625
Q 24.125 55.765625 33.84375 55.90625
z
" id="DejaVuSans-Oblique-945"/>
     <path d="M 10.59375 45.40625
L 73.1875 45.40625
L 73.1875 37.203125
L 10.59375 37.203125
z
M 10.59375 25.484375
L 73.1875 25.484375
L 73.1875 17.1875
L 10.59375 17.1875
z
" id="DejaVuSans-61"/>
     <path d="M 10.6875 12.40625
L 21 12.40625
L 21 0
L 10.6875 0
z
" id="DejaVuSans-46"/>
    </defs>
    <g transform="translate(225.708125 20.475937)scale(0.26 -0.26)">
     <use transform="translate(0 0.78125)" xlink:href="#DejaVuSans-Oblique-945"/>
     <use transform="translate(85.400391 0.78125)" xlink:href="#DejaVuSans-61"/>
     <use transform="translate(188.671875 0.78125)" xlink:href="#DejaVuSans-48"/>
     <use transform="translate(252.294922 0.78125)" xlink:href="#DejaVuSans-46"/>
     <use transform="translate(284.082031 0.78125)" xlink:href="#DejaVuSans-49"/>
    </g>
   </g>
   <g id="legend_1">
    <g id="patch_3">
     <path d="M 276.539656 302.355937
L 495.633125 302.355937
Q 500.313125 302.355937 500.313125 297.675937
L 500.313125 196.9755
Q 500.313125 192.2955 495.633125 192.2955
L 276.539656 192.2955
Q 271.859656 192.2955 271.859656 196.9755
L 271.859656 297.675937
Q 271.859656 302.355937 276.539656 302.355937
z
" style="fill:#ffffff;opacity:0.8;stroke:#cccccc;stroke-linejoin:miter;"/>
    </g>
    <g id="line2d_17">
     <path d="M 281.219656 211.245844
L 328.019656 211.245844
" style="fill:none;stroke:#d62728;stroke-linecap:square;stroke-width:8;"/>
    </g>
    <g id="line2d_18"/>
    <g id="text_8">
     <!-- NSB -->
     <defs>
      <path d="M 9.8125 72.90625
L 23.09375 72.90625
L 55.421875 11.921875
L 55.421875 72.90625
L 64.984375 72.90625
L 64.984375 0
L 51.703125 0
L 19.390625 60.984375
L 19.390625 0
L 9.8125 0
z
" id="DejaVuSans-78"/>
      <path d="M 53.515625 70.515625
L 53.515625 60.890625
Q 47.90625 63.578125 42.921875 64.890625
Q 37.9375 66.21875 33.296875 66.21875
Q 25.25 66.21875 20.875 63.09375
Q 16.5 59.96875 16.5 54.203125
Q 16.5 49.359375 19.40625 46.890625
Q 22.3125 44.4375 30.421875 42.921875
L 36.375 41.703125
Q 47.40625 39.59375 52.65625 34.296875
Q 57.90625 29 57.90625 20.125
Q 57.90625 9.515625 50.796875 4.046875
Q 43.703125 -1.421875 29.984375 -1.421875
Q 24.8125 -1.421875 18.96875 -0.25
Q 13.140625 0.921875 6.890625 3.21875
L 6.890625 13.375
Q 12.890625 10.015625 18.65625 8.296875
Q 24.421875 6.59375 29.984375 6.59375
Q 38.421875 6.59375 43.015625 9.90625
Q 47.609375 13.234375 47.609375 19.390625
Q 47.609375 24.75 44.3125 27.78125
Q 41.015625 30.8125 33.5 32.328125
L 27.484375 33.5
Q 16.453125 35.6875 11.515625 40.375
Q 6.59375 45.0625 6.59375 53.421875
Q 6.59375 63.09375 13.40625 68.65625
Q 20.21875 74.21875 32.171875 74.21875
Q 37.3125 74.21875 42.625 73.28125
Q 47.953125 72.359375 53.515625 70.515625
z
" id="DejaVuSans-83"/>
      <path d="M 19.671875 34.8125
L 19.671875 8.109375
L 35.5 8.109375
Q 43.453125 8.109375 47.28125 11.40625
Q 51.125 14.703125 51.125 21.484375
Q 51.125 28.328125 47.28125 31.5625
Q 43.453125 34.8125 35.5 34.8125
z
M 19.671875 64.796875
L 19.671875 42.828125
L 34.28125 42.828125
Q 41.5 42.828125 45.03125 45.53125
Q 48.578125 48.25 48.578125 53.8125
Q 48.578125 59.328125 45.03125 62.0625
Q 41.5 64.796875 34.28125 64.796875
z
M 9.8125 72.90625
L 35.015625 72.90625
Q 46.296875 72.90625 52.390625 68.21875
Q 58.5 63.53125 58.5 54.890625
Q 58.5 48.1875 55.375 44.234375
Q 52.25 40.28125 46.1875 39.3125
Q 53.46875 37.75 57.5 32.78125
Q 61.53125 27.828125 61.53125 20.40625
Q 61.53125 10.640625 54.890625 5.3125
Q 48.25 0 35.984375 0
L 9.8125 0
z
" id="DejaVuSans-66"/>
     </defs>
     <g transform="translate(346.739656 219.435844)scale(0.234 -0.234)">
      <use xlink:href="#DejaVuSans-78"/>
      <use x="74.804688" xlink:href="#DejaVuSans-83"/>
      <use x="138.28125" xlink:href="#DejaVuSans-66"/>
     </g>
    </g>
    <g id="line2d_19">
     <path d="M 281.219656 245.592656
L 328.019656 245.592656
" style="fill:none;stroke:#1f77b4;stroke-linecap:square;stroke-width:8;"/>
    </g>
    <g id="line2d_20"/>
    <g id="text_9">
     <!-- Plugin -->
     <defs>
      <path d="M 19.671875 64.796875
L 19.671875 37.40625
L 32.078125 37.40625
Q 38.96875 37.40625 42.71875 40.96875
Q 46.484375 44.53125 46.484375 51.125
Q 46.484375 57.671875 42.71875 61.234375
Q 38.96875 64.796875 32.078125 64.796875
z
M 9.8125 72.90625
L 32.078125 72.90625
Q 44.34375 72.90625 50.609375 67.359375
Q 56.890625 61.8125 56.890625 51.125
Q 56.890625 40.328125 50.609375 34.8125
Q 44.34375 29.296875 32.078125 29.296875
L 19.671875 29.296875
L 19.671875 0
L 9.8125 0
z
" id="DejaVuSans-80"/>
      <path d="M 8.5 21.578125
L 8.5 54.6875
L 17.484375 54.6875
L 17.484375 21.921875
Q 17.484375 14.15625 20.5 10.265625
Q 23.53125 6.390625 29.59375 6.390625
Q 36.859375 6.390625 41.078125 11.03125
Q 45.3125 15.671875 45.3125 23.6875
L 45.3125 54.6875
L 54.296875 54.6875
L 54.296875 0
L 45.3125 0
L 45.3125 8.40625
Q 42.046875 3.421875 37.71875 1
Q 33.40625 -1.421875 27.6875 -1.421875
Q 18.265625 -1.421875 13.375 4.4375
Q 8.5 10.296875 8.5 21.578125
z
M 31.109375 56
z
" id="DejaVuSans-117"/>
      <path d="M 45.40625 27.984375
Q 45.40625 37.75 41.375 43.109375
Q 37.359375 48.484375 30.078125 48.484375
Q 22.859375 48.484375 18.828125 43.109375
Q 14.796875 37.75 14.796875 27.984375
Q 14.796875 18.265625 18.828125 12.890625
Q 22.859375 7.515625 30.078125 7.515625
Q 37.359375 7.515625 41.375 12.890625
Q 45.40625 18.265625 45.40625 27.984375
z
M 54.390625 6.78125
Q 54.390625 -7.171875 48.1875 -13.984375
Q 42 -20.796875 29.203125 -20.796875
Q 24.46875 -20.796875 20.265625 -20.09375
Q 16.0625 -19.390625 12.109375 -17.921875
L 12.109375 -9.1875
Q 16.0625 -11.328125 19.921875 -12.34375
Q 23.78125 -13.375 27.78125 -13.375
Q 36.625 -13.375 41.015625 -8.765625
Q 45.40625 -4.15625 45.40625 5.171875
L 45.40625 9.625
Q 42.625 4.78125 38.28125 2.390625
Q 33.9375 0 27.875 0
Q 17.828125 0 11.671875 7.65625
Q 5.515625 15.328125 5.515625 27.984375
Q 5.515625 40.671875 11.671875 48.328125
Q 17.828125 56 27.875 56
Q 33.9375 56 38.28125 53.609375
Q 42.625 51.21875 45.40625 46.390625
L 45.40625 54.6875
L 54.390625 54.6875
z
" id="DejaVuSans-103"/>
      <path d="M 54.890625 33.015625
L 54.890625 0
L 45.90625 0
L 45.90625 32.71875
Q 45.90625 40.484375 42.875 44.328125
Q 39.84375 48.1875 33.796875 48.1875
Q 26.515625 48.1875 22.3125 43.546875
Q 18.109375 38.921875 18.109375 30.90625
L 18.109375 0
L 9.078125 0
L 9.078125 54.6875
L 18.109375 54.6875
L 18.109375 46.1875
Q 21.34375 51.125 25.703125 53.5625
Q 30.078125 56 35.796875 56
Q 45.21875 56 50.046875 50.171875
Q 54.890625 44.34375 54.890625 33.015625
z
" id="DejaVuSans-110"/>
     </defs>
     <g transform="translate(346.739656 253.782656)scale(0.234 -0.234)">
      <use xlink:href="#DejaVuSans-80"/>
      <use x="60.302734" xlink:href="#DejaVuSans-108"/>
      <use x="88.085938" xlink:href="#DejaVuSans-117"/>
      <use x="151.464844" xlink:href="#DejaVuSans-103"/>
      <use x="214.941406" xlink:href="#DejaVuSans-105"/>
      <use x="242.724609" xlink:href="#DejaVuSans-110"/>
     </g>
    </g>
    <g id="line2d_21">
     <path d="M 281.219656 279.939469
L 328.019656 279.939469
" style="fill:none;stroke:#2ca02c;stroke-linecap:square;stroke-width:8;"/>
    </g>
    <g id="line2d_22"/>
    <g id="text_10">
     <!-- Grassberger -->
     <defs>
      <path d="M 59.515625 10.40625
L 59.515625 29.984375
L 43.40625 29.984375
L 43.40625 38.09375
L 69.28125 38.09375
L 69.28125 6.78125
Q 63.578125 2.734375 56.6875 0.65625
Q 49.8125 -1.421875 42 -1.421875
Q 24.90625 -1.421875 15.25 8.5625
Q 5.609375 18.5625 5.609375 36.375
Q 5.609375 54.25 15.25 64.234375
Q 24.90625 74.21875 42 74.21875
Q 49.125 74.21875 55.546875 72.453125
Q 61.96875 70.703125 67.390625 67.28125
L 67.390625 56.78125
Q 61.921875 61.421875 55.765625 63.765625
Q 49.609375 66.109375 42.828125 66.109375
Q 29.4375 66.109375 22.71875 58.640625
Q 16.015625 51.171875 16.015625 36.375
Q 16.015625 21.625 22.71875 14.15625
Q 29.4375 6.6875 42.828125 6.6875
Q 48.046875 6.6875 52.140625 7.59375
Q 56.25 8.5 59.515625 10.40625
z
" id="DejaVuSans-71"/>
      <path d="M 41.109375 46.296875
Q 39.59375 47.171875 37.8125 47.578125
Q 36.03125 48 33.890625 48
Q 26.265625 48 22.1875 43.046875
Q 18.109375 38.09375 18.109375 28.8125
L 18.109375 0
L 9.078125 0
L 9.078125 54.6875
L 18.109375 54.6875
L 18.109375 46.1875
Q 20.953125 51.171875 25.484375 53.578125
Q 30.03125 56 36.53125 56
Q 37.453125 56 38.578125 55.875
Q 39.703125 55.765625 41.0625 55.515625
z
" id="DejaVuSans-114"/>
     </defs>
     <g transform="translate(346.739656 288.129469)scale(0.234 -0.234)">
      <use xlink:href="#DejaVuSans-71"/>
      <use x="77.490234" xlink:href="#DejaVuSans-114"/>
      <use x="118.603516" xlink:href="#DejaVuSans-97"/>
      <use x="179.882812" xlink:href="#DejaVuSans-115"/>
      <use x="231.982422" xlink:href="#DejaVuSans-115"/>
      <use x="284.082031" xlink:href="#DejaVuSans-98"/>
      <use x="347.558594" xlink:href="#DejaVuSans-101"/>
      <use x="409.082031" xlink:href="#DejaVuSans-114"/>
      <use x="450.179688" xlink:href="#DejaVuSans-103"/>
      <use x="513.65625" xlink:href="#DejaVuSans-101"/>
      <use x="575.179688" xlink:href="#DejaVuSans-114"/>
     </g>
    </g>
   </g>
  </g>
  <g id="axes_2">
   <g id="patch_4">
    <path d="M 610.793125 314.055937
L 1092.923125 314.055937
L 1092.923125 26.475937
L 610.793125 26.475937
z
" style="fill:none;"/>
   </g>
   <g id="PolyCollection_4">
    <defs>
     <path d="M 610.793125 -183.135331
L 610.793125 -183.135331
L 645.230982 -198.376604
L 679.668839 -223.274244
L 714.106696 -239.949695
L 748.544554 -258.506404
L 782.982411 -274.255675
L 817.420268 -286.32282
L 851.858125 -294.577118
L 886.295982 -298.440428
L 920.733839 -300.543938
L 955.171696 -301.156512
L 989.609554 -301.444741
L 1024.047411 -301.559609
L 1058.485268 -301.621247
L 1092.923125 -301.644321
L 1092.923125 -301.716767
L 1092.923125 -301.716767
L 1058.485268 -301.739276
L 1024.047411 -301.786208
L 989.609554 -301.929184
L 955.171696 -302.10926
L 920.733839 -301.998078
L 886.295982 -301.332306
L 851.858125 -299.472383
L 817.420268 -295.058886
L 782.982411 -285.825204
L 748.544554 -269.754075
L 714.106696 -248.110674
L 679.668839 -223.274244
L 645.230982 -198.376604
L 610.793125 -183.135331
z
" id="mfd72a4bbce" style="stroke:#d62728;stroke-opacity:0.2;"/>
    </defs>
    <g clip-path="url(#p7c3cfd8a4e)">
     <use style="fill:#d62728;fill-opacity:0.2;stroke:#d62728;stroke-opacity:0.2;" x="0" xlink:href="#mfd72a4bbce" y="376.085875"/>
    </g>
   </g>
   <g id="PolyCollection_5">
    <defs>
     <path d="M 610.793125 -63.309034
L 610.793125 -63.309034
L 645.230982 -81.344494
L 679.668839 -105.186075
L 714.106696 -125.428558
L 748.544554 -147.765427
L 782.982411 -169.878281
L 817.420268 -190.974491
L 851.858125 -212.202289
L 886.295982 -232.789685
L 920.733839 -252.529354
L 955.171696 -270.291974
L 989.609554 -284.600871
L 1024.047411 -293.903254
L 1058.485268 -298.467267
L 1092.923125 -300.315095
L 1092.923125 -300.387579
L 1092.923125 -300.387579
L 1058.485268 -298.588971
L 1024.047411 -294.127655
L 989.609554 -284.950039
L 955.171696 -270.736472
L 920.733839 -253.005619
L 886.295982 -233.320906
L 851.858125 -212.718253
L 817.420268 -191.514433
L 782.982411 -170.425227
L 748.544554 -148.304709
L 714.106696 -125.935039
L 679.668839 -105.186075
L 645.230982 -81.344494
L 610.793125 -63.309034
z
" id="maaef3ab81d" style="stroke:#1f77b4;stroke-opacity:0.2;"/>
    </defs>
    <g clip-path="url(#p7c3cfd8a4e)">
     <use style="fill:#1f77b4;fill-opacity:0.2;stroke:#1f77b4;stroke-opacity:0.2;" x="0" xlink:href="#maaef3ab81d" y="376.085875"/>
    </g>
   </g>
   <g id="PolyCollection_6">
    <defs>
     <path d="M 610.793125 -96.363454
L 610.793125 -96.363454
L 645.230982 -114.398914
L 679.668839 -138.240494
L 714.106696 -157.968425
L 748.544554 -180.219919
L 782.982411 -202.196374
L 817.420268 -223.019465
L 851.858125 -243.644224
L 886.295982 -262.81753
L 920.733839 -279.821278
L 955.171696 -292.407297
L 989.609554 -299.274464
L 1024.047411 -301.322556
L 1058.485268 -301.608582
L 1092.923125 -301.641151
L 1092.923125 -301.719831
L 1092.923125 -301.719831
L 1058.485268 -301.74601
L 1024.047411 -301.643423
L 989.609554 -299.920102
L 955.171696 -293.433899
L 920.733839 -281.062918
L 886.295982 -264.288023
L 851.858125 -245.110843
L 817.420268 -224.567833
L 782.982411 -203.763255
L 748.544554 -181.775958
L 714.106696 -159.429821
L 679.668839 -138.240494
L 645.230982 -114.398914
L 610.793125 -96.363454
z
" id="md7522bab07" style="stroke:#2ca02c;stroke-opacity:0.2;"/>
    </defs>
    <g clip-path="url(#p7c3cfd8a4e)">
     <use style="fill:#2ca02c;fill-opacity:0.2;stroke:#2ca02c;stroke-opacity:0.2;" x="0" xlink:href="#md7522bab07" y="376.085875"/>
    </g>
   </g>
   <g id="matplotlib.axis_3">
    <g id="xtick_45">
     <g id="text_11">
      <!-- $\mathdefault{10^{1}}$ -->
      <g transform="translate(686.627125 341.336281)scale(0.234 -0.234)">
       <use transform="translate(0 0.684375)" xlink:href="#DejaVuSans-49"/>
       <use transform="translate(63.623047 0.684375)" xlink:href="#DejaVuSans-48"/>
       <use transform="translate(128.203125 38.965625)scale(0.7)" xlink:href="#DejaVuSans-49"/>
      </g>
     </g>
    </g>
    <g id="xtick_46">
     <g id="text_12">
      <!-- $\mathdefault{10^{2}}$ -->
      <g transform="translate(783.053125 341.336281)scale(0.234 -0.234)">
       <use transform="translate(0 0.765625)" xlink:href="#DejaVuSans-49"/>
       <use transform="translate(63.623047 0.765625)" xlink:href="#DejaVuSans-48"/>
       <use transform="translate(128.203125 39.046875)scale(0.7)" xlink:href="#DejaVuSans-50"/>
      </g>
     </g>
    </g>
    <g id="xtick_47">
     <g id="text_13">
      <!-- $\mathdefault{10^{3}}$ -->
      <g transform="translate(879.479125 341.336281)scale(0.234 -0.234)">
       <use transform="translate(0 0.765625)" xlink:href="#DejaVuSans-49"/>
       <use transform="translate(63.623047 0.765625)" xlink:href="#DejaVuSans-48"/>
       <use transform="translate(128.203125 39.046875)scale(0.7)" xlink:href="#DejaVuSans-51"/>
      </g>
     </g>
    </g>
    <g id="xtick_48">
     <g id="text_14">
      <!-- $\mathdefault{10^{4}}$ -->
      <g transform="translate(975.905125 341.336281)scale(0.234 -0.234)">
       <use transform="translate(0 0.684375)" xlink:href="#DejaVuSans-49"/>
       <use transform="translate(63.623047 0.684375)" xlink:href="#DejaVuSans-48"/>
       <use transform="translate(128.203125 38.965625)scale(0.7)" xlink:href="#DejaVuSans-52"/>
      </g>
     </g>
    </g>
    <g id="xtick_49"/>
    <g id="xtick_50"/>
    <g id="xtick_51"/>
    <g id="xtick_52"/>
    <g id="xtick_53"/>
    <g id="xtick_54"/>
    <g id="xtick_55"/>
    <g id="xtick_56"/>
    <g id="xtick_57"/>
    <g id="xtick_58"/>
    <g id="xtick_59"/>
    <g id="xtick_60"/>
    <g id="xtick_61"/>
    <g id="xtick_62"/>
    <g id="xtick_63"/>
    <g id="xtick_64"/>
    <g id="xtick_65"/>
    <g id="xtick_66"/>
    <g id="xtick_67"/>
    <g id="xtick_68"/>
    <g id="xtick_69"/>
    <g id="xtick_70"/>
    <g id="xtick_71"/>
    <g id="xtick_72"/>
    <g id="xtick_73"/>
    <g id="xtick_74"/>
    <g id="xtick_75"/>
    <g id="xtick_76"/>
    <g id="xtick_77"/>
    <g id="xtick_78"/>
    <g id="xtick_79"/>
    <g id="xtick_80"/>
    <g id="xtick_81"/>
    <g id="xtick_82"/>
    <g id="xtick_83"/>
    <g id="xtick_84"/>
    <g id="xtick_85"/>
    <g id="xtick_86"/>
    <g id="xtick_87"/>
    <g id="xtick_88"/>
    <g id="text_15">
     <!-- #samples -->
     <g transform="translate(786.927187 369.958687)scale(0.26 -0.26)">
      <use xlink:href="#DejaVuSans-35"/>
      <use x="83.789062" xlink:href="#DejaVuSans-115"/>
      <use x="135.888672" xlink:href="#DejaVuSans-97"/>
      <use x="197.167969" xlink:href="#DejaVuSans-109"/>
      <use x="294.580078" xlink:href="#DejaVuSans-112"/>
      <use x="358.056641" xlink:href="#DejaVuSans-108"/>
      <use x="385.839844" xlink:href="#DejaVuSans-101"/>
      <use x="447.363281" xlink:href="#DejaVuSans-115"/>
     </g>
    </g>
   </g>
   <g id="matplotlib.axis_4">
    <g id="ytick_4">
     <g id="text_16">
      <!-- −0.8 -->
      <defs>
       <path d="M 10.59375 35.5
L 73.1875 35.5
L 73.1875 27.203125
L 10.59375 27.203125
z
" id="DejaVuSans-8722"/>
       <path d="M 31.78125 34.625
Q 24.75 34.625 20.71875 30.859375
Q 16.703125 27.09375 16.703125 20.515625
Q 16.703125 13.921875 20.71875 10.15625
Q 24.75 6.390625 31.78125 6.390625
Q 38.8125 6.390625 42.859375 10.171875
Q 46.921875 13.96875 46.921875 20.515625
Q 46.921875 27.09375 42.890625 30.859375
Q 38.875 34.625 31.78125 34.625
z
M 21.921875 38.8125
Q 15.578125 40.375 12.03125 44.71875
Q 8.5 49.078125 8.5 55.328125
Q 8.5 64.0625 14.71875 69.140625
Q 20.953125 74.21875 31.78125 74.21875
Q 42.671875 74.21875 48.875 69.140625
Q 55.078125 64.0625 55.078125 55.328125
Q 55.078125 49.078125 51.53125 44.71875
Q 48 40.375 41.703125 38.8125
Q 48.828125 37.15625 52.796875 32.3125
Q 56.78125 27.484375 56.78125 20.515625
Q 56.78125 9.90625 50.3125 4.234375
Q 43.84375 -1.421875 31.78125 -1.421875
Q 19.734375 -1.421875 13.25 4.234375
Q 6.78125 9.90625 6.78125 20.515625
Q 6.78125 27.484375 10.78125 32.3125
Q 14.796875 37.15625 21.921875 38.8125
z
M 18.3125 54.390625
Q 18.3125 48.734375 21.84375 45.5625
Q 25.390625 42.390625 31.78125 42.390625
Q 38.140625 42.390625 41.71875 45.5625
Q 45.3125 48.734375 45.3125 54.390625
Q 45.3125 60.0625 41.71875 63.234375
Q 38.140625 66.40625 31.78125 66.40625
Q 25.390625 66.40625 21.84375 63.234375
Q 18.3125 60.0625 18.3125 54.390625
z
" id="DejaVuSans-56"/>
      </defs>
      <g transform="translate(544.471344 275.016109)scale(0.234 -0.234)">
       <use xlink:href="#DejaVuSans-8722"/>
       <use x="83.789062" xlink:href="#DejaVuSans-48"/>
       <use x="147.412109" xlink:href="#DejaVuSans-46"/>
       <use x="179.199219" xlink:href="#DejaVuSans-56"/>
      </g>
     </g>
    </g>
    <g id="ytick_5">
     <g id="text_17">
      <!-- −0.4 -->
      <g transform="translate(544.471344 179.156109)scale(0.234 -0.234)">
       <use xlink:href="#DejaVuSans-8722"/>
       <use x="83.789062" xlink:href="#DejaVuSans-48"/>
       <use x="147.412109" xlink:href="#DejaVuSans-46"/>
       <use x="179.199219" xlink:href="#DejaVuSans-52"/>
      </g>
     </g>
    </g>
    <g id="ytick_6">
     <g id="text_18">
      <!-- 0.0 -->
      <g transform="translate(564.079813 83.296109)scale(0.234 -0.234)">
       <use xlink:href="#DejaVuSans-48"/>
       <use x="63.623047" xlink:href="#DejaVuSans-46"/>
       <use x="95.410156" xlink:href="#DejaVuSans-48"/>
      </g>
     </g>
    </g>
   </g>
   <g id="line2d_23">
    <path clip-path="url(#p7c3cfd8a4e)" d="M 610.793125 192.950544
L 645.230982 177.709271
L 679.668839 152.811631
L 714.106696 132.055691
L 748.544554 111.955636
L 782.982411 96.045436
L 817.420268 85.395022
L 851.858125 79.061124
L 886.295982 76.199508
L 920.733839 74.814867
L 955.171696 74.452989
L 989.609554 74.398913
L 1024.047411 74.412967
L 1058.485268 74.405614
L 1092.923125 74.405331
" style="fill:none;stroke:#d62728;stroke-linecap:square;stroke-width:8;"/>
   </g>
   <g id="line2d_24">
    <path clip-path="url(#p7c3cfd8a4e)" d="M 610.793125 192.950544
L 645.230982 177.709271
L 679.668839 152.811631
L 714.106696 136.13618
L 748.544554 117.579471
L 782.982411 101.8302
L 817.420268 89.763055
L 851.858125 81.508757
L 886.295982 77.645447
L 920.733839 75.541937
L 955.171696 74.929363
L 989.609554 74.641134
L 1024.047411 74.526266
L 1058.485268 74.464628
L 1092.923125 74.441554
" style="fill:none;stroke:#d62728;stroke-linecap:square;stroke-opacity:0.2;stroke-width:2;"/>
   </g>
   <g id="line2d_25">
    <path clip-path="url(#p7c3cfd8a4e)" d="M 610.793125 192.950544
L 645.230982 177.709271
L 679.668839 152.811631
L 714.106696 127.975201
L 748.544554 106.3318
L 782.982411 90.260671
L 817.420268 81.026989
L 851.858125 76.613492
L 886.295982 74.753569
L 920.733839 74.087797
L 955.171696 73.976615
L 989.609554 74.156691
L 1024.047411 74.299667
L 1058.485268 74.346599
L 1092.923125 74.369108
" style="fill:none;stroke:#d62728;stroke-linecap:square;stroke-opacity:0.2;stroke-width:2;"/>
   </g>
   <g id="line2d_26">
    <path clip-path="url(#p7c3cfd8a4e)" d="M 610.793125 312.776841
L 645.230982 294.741381
L 679.668839 270.8998
L 714.106696 250.404077
L 748.544554 228.050807
L 782.982411 205.934121
L 817.420268 184.841413
L 851.858125 163.625604
L 886.295982 143.030579
L 920.733839 123.318388
L 955.171696 105.571652
L 989.609554 91.31042
L 1024.047411 82.070421
L 1058.485268 77.557756
L 1092.923125 75.734538
" style="fill:none;stroke:#1f77b4;stroke-linecap:square;stroke-width:8;"/>
   </g>
   <g id="line2d_27">
    <path clip-path="url(#p7c3cfd8a4e)" d="M 610.793125 312.776841
L 645.230982 294.741381
L 679.668839 270.8998
L 714.106696 250.657317
L 748.544554 228.320448
L 782.982411 206.207594
L 817.420268 185.111384
L 851.858125 163.883586
L 886.295982 143.29619
L 920.733839 123.556521
L 955.171696 105.793901
L 989.609554 91.485004
L 1024.047411 82.182621
L 1058.485268 77.618608
L 1092.923125 75.77078
" style="fill:none;stroke:#1f77b4;stroke-linecap:square;stroke-opacity:0.2;stroke-width:2;"/>
   </g>
   <g id="line2d_28">
    <path clip-path="url(#p7c3cfd8a4e)" d="M 610.793125 312.776841
L 645.230982 294.741381
L 679.668839 270.8998
L 714.106696 250.150836
L 748.544554 227.781166
L 782.982411 205.660648
L 817.420268 184.571442
L 851.858125 163.367622
L 886.295982 142.764969
L 920.733839 123.080256
L 955.171696 105.349403
L 989.609554 91.135836
L 1024.047411 81.95822
L 1058.485268 77.496904
L 1092.923125 75.698296
" style="fill:none;stroke:#1f77b4;stroke-linecap:square;stroke-opacity:0.2;stroke-width:2;"/>
   </g>
   <g id="line2d_29">
    <path clip-path="url(#p7c3cfd8a4e)" d="M 610.793125 279.722421
L 645.230982 261.686961
L 679.668839 237.845381
L 714.106696 217.386752
L 748.544554 195.087936
L 782.982411 173.106061
L 817.420268 152.292226
L 851.858125 131.708342
L 886.295982 112.533098
L 920.733839 95.643777
L 955.171696 83.165277
L 989.609554 76.488592
L 1024.047411 74.602886
L 1058.485268 74.408579
L 1092.923125 74.405384
" style="fill:none;stroke:#2ca02c;stroke-linecap:square;stroke-width:8;"/>
   </g>
   <g id="line2d_30">
    <path clip-path="url(#p7c3cfd8a4e)" d="M 610.793125 279.722421
L 645.230982 261.686961
L 679.668839 237.845381
L 714.106696 218.11745
L 748.544554 195.865956
L 782.982411 173.889501
L 817.420268 153.06641
L 851.858125 132.441651
L 886.295982 113.268345
L 920.733839 96.264597
L 955.171696 83.678578
L 989.609554 76.811411
L 1024.047411 74.763319
L 1058.485268 74.477293
L 1092.923125 74.444724
" style="fill:none;stroke:#2ca02c;stroke-linecap:square;stroke-opacity:0.2;stroke-width:2;"/>
   </g>
   <g id="line2d_31">
    <path clip-path="url(#p7c3cfd8a4e)" d="M 610.793125 279.722421
L 645.230982 261.686961
L 679.668839 237.845381
L 714.106696 216.656054
L 748.544554 194.309917
L 782.982411 172.32262
L 817.420268 151.518042
L 851.858125 130.975032
L 886.295982 111.797852
L 920.733839 95.022957
L 955.171696 82.651976
L 989.609554 76.165773
L 1024.047411 74.442452
L 1058.485268 74.339865
L 1092.923125 74.366044
" style="fill:none;stroke:#2ca02c;stroke-linecap:square;stroke-opacity:0.2;stroke-width:2;"/>
   </g>
   <g id="line2d_32">
    <path clip-path="url(#p7c3cfd8a4e)" d="M 707.219125 314.055937
L 707.219125 26.475937
" style="fill:none;stroke:#000000;stroke-dasharray:7.4,3.2;stroke-dashoffset:0;stroke-opacity:0.2;stroke-width:2;"/>
   </g>
   <g id="line2d_33">
    <path clip-path="url(#p7c3cfd8a4e)" d="M 803.645125 314.055937
L 803.645125 26.475937
" style="fill:none;stroke:#000000;stroke-dasharray:7.4,3.2;stroke-dashoffset:0;stroke-opacity:0.2;stroke-width:2;"/>
   </g>
   <g id="line2d_34">
    <path clip-path="url(#p7c3cfd8a4e)" d="M 900.071125 314.055937
L 900.071125 26.475937
" style="fill:none;stroke:#000000;stroke-dasharray:7.4,3.2;stroke-dashoffset:0;stroke-opacity:0.2;stroke-width:2;"/>
   </g>
   <g id="line2d_35">
    <path clip-path="url(#p7c3cfd8a4e)" d="M 996.497125 314.055937
L 996.497125 26.475937
" style="fill:none;stroke:#000000;stroke-dasharray:7.4,3.2;stroke-dashoffset:0;stroke-opacity:0.2;stroke-width:2;"/>
   </g>
   <g id="line2d_36">
    <path clip-path="url(#p7c3cfd8a4e)" d="M 610.793125 266.125937
L 1092.923125 266.125937
" style="fill:none;stroke:#000000;stroke-dasharray:7.4,3.2;stroke-dashoffset:0;stroke-opacity:0.2;stroke-width:2;"/>
   </g>
   <g id="line2d_37">
    <path clip-path="url(#p7c3cfd8a4e)" d="M 610.793125 170.265937
L 1092.923125 170.265937
" style="fill:none;stroke:#000000;stroke-dasharray:7.4,3.2;stroke-dashoffset:0;stroke-opacity:0.2;stroke-width:2;"/>
   </g>
   <g id="line2d_38">
    <path clip-path="url(#p7c3cfd8a4e)" d="M 610.793125 74.405937
L 1092.923125 74.405937
" style="fill:none;stroke:#000000;stroke-dasharray:7.4,3.2;stroke-dashoffset:0;stroke-opacity:0.2;stroke-width:2;"/>
   </g>
   <g id="text_19">
    <!-- $\alpha = 10$ -->
    <g transform="translate(810.778125 20.475937)scale(0.26 -0.26)">
     <use transform="translate(0 0.78125)" xlink:href="#DejaVuSans-Oblique-945"/>
     <use transform="translate(85.400391 0.78125)" xlink:href="#DejaVuSans-61"/>
     <use transform="translate(188.671875 0.78125)" xlink:href="#DejaVuSans-49"/>
     <use transform="translate(252.294922 0.78125)" xlink:href="#DejaVuSans-48"/>
    </g>
   </g>
  </g>
 </g>
 <defs>
  <clipPath id="p158bc682a3">
   <rect height="287.58" width="482.13" x="29.883125" y="26.475937"/>
  </clipPath>
  <clipPath id="p7c3cfd8a4e">
   <rect height="287.58" width="482.13" x="610.793125" y="26.475937"/>
  </clipPath>
 </defs>
</svg>
