<?xml version="1.0" encoding="utf-8" standalone="no"?>
<!DOCTYPE svg PUBLIC "-//W3C//DTD SVG 1.1//EN"
  "http://www.w3.org/Graphics/SVG/1.1/DTD/svg11.dtd">
<!-- Created with matplotlib (https://matplotlib.org/) -->
<svg height="432pt" version="1.1" viewBox="0 0 1152 432" width="1152pt" xmlns="http://www.w3.org/2000/svg" xmlns:xlink="http://www.w3.org/1999/xlink">
 <defs>
  <style type="text/css">
*{stroke-linecap:butt;stroke-linejoin:round;}
  </style>
 </defs>
 <g id="figure_1">
  <g id="patch_1">
   <path d="M 0 432
L 1152 432
L 1152 0
L 0 0
z
" style="fill:#ffffff;"/>
  </g>
  <g id="axes_1">
   <g id="patch_2">
    <path d="M 56.56 341.1
L 538.69 341.1
L 538.69 53.52
L 56.56 53.52
z
" style="fill:#ffffff;"/>
   </g>
   <g id="PolyCollection_1">
    <defs>
     <path d="M 56.56 -259.601428
L 56.56 -259.601428
L 90.997857 -271.321677
L 125.435714 -289.936268
L 159.873571 -304.486064
L 194.311429 -315.618544
L 228.749286 -320.667635
L 263.187143 -323.702837
L 297.625 -327.039186
L 332.062857 -328.570269
L 366.500714 -329.214222
L 400.938571 -329.636074
L 435.376429 -329.786335
L 469.814286 -329.877035
L 504.252143 -329.913698
L 538.69 -329.913791
L 538.69 -331.190614
L 538.69 -331.190614
L 504.252143 -331.192809
L 469.814286 -331.221312
L 435.376429 -331.285024
L 400.938571 -331.443008
L 366.500714 -331.842648
L 332.062857 -332.740133
L 297.625 -334.949597
L 263.187143 -341.792689
L 228.749286 -350.804068
L 194.311429 -347.448053
L 159.873571 -330.428409
L 125.435714 -307.52574
L 90.997857 -278.147757
L 56.56 -259.601428
z
" id="mfc18a01f6e" style="stroke:#d62728;stroke-opacity:0.2;"/>
    </defs>
    <g clip-path="url(#pbfcd645aa2)">
     <use style="fill:#d62728;fill-opacity:0.2;stroke:#d62728;stroke-opacity:0.2;" x="0" xlink:href="#mfc18a01f6e" y="432"/>
    </g>
   </g>
   <g id="PolyCollection_2">
    <defs>
     <path d="M 56.56 -139.775131
L 56.56 -139.775131
L 90.997857 -157.222509
L 125.435714 -180.741208
L 159.873571 -201.141828
L 194.311429 -223.244207
L 228.749286 -244.750508
L 263.187143 -264.597499
L 297.625 -283.247471
L 332.062857 -299.081834
L 366.500714 -311.229791
L 400.938571 -319.466701
L 435.376429 -324.399179
L 469.814286 -327.14225
L 504.252143 -328.566462
L 538.69 -329.263765
L 538.69 -330.538132
L 538.69 -330.538132
L 504.252143 -329.834497
L 469.814286 -328.445705
L 435.376429 -325.754396
L 400.938571 -320.861806
L 366.500714 -312.740016
L 332.062857 -300.610626
L 297.625 -284.817511
L 263.187143 -266.263442
L 228.749286 -246.405835
L 194.311429 -224.867394
L 159.873571 -202.773579
L 125.435714 -182.375567
L 90.997857 -158.362601
L 56.56 -139.775131
z
" id="m44ce366047" style="stroke:#1f77b4;stroke-opacity:0.2;"/>
    </defs>
    <g clip-path="url(#pbfcd645aa2)">
     <use style="fill:#1f77b4;fill-opacity:0.2;stroke:#1f77b4;stroke-opacity:0.2;" x="0" xlink:href="#m44ce366047" y="432"/>
    </g>
   </g>
   <g id="PolyCollection_3">
    <defs>
     <path d="M 56.56 -172.829551
L 56.56 -172.829551
L 90.997857 -189.168166
L 125.435714 -212.078105
L 159.873571 -232.262322
L 194.311429 -253.949013
L 228.749286 -274.348963
L 263.187143 -292.072946
L 297.625 -307.080366
L 332.062857 -317.678979
L 366.500714 -323.933063
L 400.938571 -327.280759
L 435.376429 -328.779387
L 469.814286 -329.453565
L 504.252143 -329.741609
L 538.69 -329.84267
L 538.69 -331.123231
L 538.69 -331.123231
L 504.252143 -331.024459
L 469.814286 -330.809595
L 435.376429 -330.261883
L 400.938571 -328.983194
L 366.500714 -326.130011
L 332.062857 -320.414677
L 297.625 -310.539931
L 263.187143 -296.272609
L 228.749286 -278.806589
L 194.311429 -258.465158
L 159.873571 -236.97056
L 125.435714 -216.793868
L 90.997857 -192.457776
L 56.56 -172.829551
z
" id="m86bd235fbe" style="stroke:#2ca02c;stroke-opacity:0.2;"/>
    </defs>
    <g clip-path="url(#pbfcd645aa2)">
     <use style="fill:#2ca02c;fill-opacity:0.2;stroke:#2ca02c;stroke-opacity:0.2;" x="0" xlink:href="#m86bd235fbe" y="432"/>
    </g>
   </g>
   <g id="matplotlib.axis_1">
    <g id="xtick_1">
     <g id="text_1">
      <!-- $\mathdefault{10^{1}}$ -->
      <defs>
       <path d="M 12.40625 8.296875
L 28.515625 8.296875
L 28.515625 63.921875
L 10.984375 60.40625
L 10.984375 69.390625
L 28.421875 72.90625
L 38.28125 72.90625
L 38.28125 8.296875
L 54.390625 8.296875
L 54.390625 0
L 12.40625 0
z
" id="DejaVuSans-49"/>
       <path d="M 31.78125 66.40625
Q 24.171875 66.40625 20.328125 58.90625
Q 16.5 51.421875 16.5 36.375
Q 16.5 21.390625 20.328125 13.890625
Q 24.171875 6.390625 31.78125 6.390625
Q 39.453125 6.390625 43.28125 13.890625
Q 47.125 21.390625 47.125 36.375
Q 47.125 51.421875 43.28125 58.90625
Q 39.453125 66.40625 31.78125 66.40625
z
M 31.78125 74.21875
Q 44.046875 74.21875 50.515625 64.515625
Q 56.984375 54.828125 56.984375 36.375
Q 56.984375 17.96875 50.515625 8.265625
Q 44.046875 -1.421875 31.78125 -1.421875
Q 19.53125 -1.421875 13.0625 8.265625
Q 6.59375 17.96875 6.59375 36.375
Q 6.59375 54.828125 13.0625 64.515625
Q 19.53125 74.21875 31.78125 74.21875
z
" id="DejaVuSans-48"/>
      </defs>
      <g transform="translate(132.394 368.380344)scale(0.234 -0.234)">
       <use transform="translate(0 0.684375)" xlink:href="#DejaVuSans-49"/>
       <use transform="translate(63.623047 0.684375)" xlink:href="#DejaVuSans-48"/>
       <use transform="translate(128.203125 38.965625)scale(0.7)" xlink:href="#DejaVuSans-49"/>
      </g>
     </g>
    </g>
    <g id="xtick_2">
     <g id="text_2">
      <!-- $\mathdefault{10^{2}}$ -->
      <defs>
       <path d="M 19.1875 8.296875
L 53.609375 8.296875
L 53.609375 0
L 7.328125 0
L 7.328125 8.296875
Q 12.9375 14.109375 22.625 23.890625
Q 32.328125 33.6875 34.8125 36.53125
Q 39.546875 41.84375 41.421875 45.53125
Q 43.3125 49.21875 43.3125 52.78125
Q 43.3125 58.59375 39.234375 62.25
Q 35.15625 65.921875 28.609375 65.921875
Q 23.96875 65.921875 18.8125 64.3125
Q 13.671875 62.703125 7.8125 59.421875
L 7.8125 69.390625
Q 13.765625 71.78125 18.9375 73
Q 24.125 74.21875 28.421875 74.21875
Q 39.75 74.21875 46.484375 68.546875
Q 53.21875 62.890625 53.21875 53.421875
Q 53.21875 48.921875 51.53125 44.890625
Q 49.859375 40.875 45.40625 35.40625
Q 44.1875 33.984375 37.640625 27.21875
Q 31.109375 20.453125 19.1875 8.296875
z
" id="DejaVuSans-50"/>
      </defs>
      <g transform="translate(228.82 368.380344)scale(0.234 -0.234)">
       <use transform="translate(0 0.765625)" xlink:href="#DejaVuSans-49"/>
       <use transform="translate(63.623047 0.765625)" xlink:href="#DejaVuSans-48"/>
       <use transform="translate(128.203125 39.046875)scale(0.7)" xlink:href="#DejaVuSans-50"/>
      </g>
     </g>
    </g>
    <g id="xtick_3">
     <g id="text_3">
      <!-- $\mathdefault{10^{3}}$ -->
      <defs>
       <path d="M 40.578125 39.3125
Q 47.65625 37.796875 51.625 33
Q 55.609375 28.21875 55.609375 21.1875
Q 55.609375 10.40625 48.1875 4.484375
Q 40.765625 -1.421875 27.09375 -1.421875
Q 22.515625 -1.421875 17.65625 -0.515625
Q 12.796875 0.390625 7.625 2.203125
L 7.625 11.71875
Q 11.71875 9.328125 16.59375 8.109375
Q 21.484375 6.890625 26.8125 6.890625
Q 36.078125 6.890625 40.9375 10.546875
Q 45.796875 14.203125 45.796875 21.1875
Q 45.796875 27.640625 41.28125 31.265625
Q 36.765625 34.90625 28.71875 34.90625
L 20.21875 34.90625
L 20.21875 43.015625
L 29.109375 43.015625
Q 36.375 43.015625 40.234375 45.921875
Q 44.09375 48.828125 44.09375 54.296875
Q 44.09375 59.90625 40.109375 62.90625
Q 36.140625 65.921875 28.71875 65.921875
Q 24.65625 65.921875 20.015625 65.03125
Q 15.375 64.15625 9.8125 62.3125
L 9.8125 71.09375
Q 15.4375 72.65625 20.34375 73.4375
Q 25.25 74.21875 29.59375 74.21875
Q 40.828125 74.21875 47.359375 69.109375
Q 53.90625 64.015625 53.90625 55.328125
Q 53.90625 49.265625 50.4375 45.09375
Q 46.96875 40.921875 40.578125 39.3125
z
" id="DejaVuSans-51"/>
      </defs>
      <g transform="translate(325.246 368.380344)scale(0.234 -0.234)">
       <use transform="translate(0 0.765625)" xlink:href="#DejaVuSans-49"/>
       <use transform="translate(63.623047 0.765625)" xlink:href="#DejaVuSans-48"/>
       <use transform="translate(128.203125 39.046875)scale(0.7)" xlink:href="#DejaVuSans-51"/>
      </g>
     </g>
    </g>
    <g id="xtick_4">
     <g id="text_4">
      <!-- $\mathdefault{10^{4}}$ -->
      <defs>
       <path d="M 37.796875 64.3125
L 12.890625 25.390625
L 37.796875 25.390625
z
M 35.203125 72.90625
L 47.609375 72.90625
L 47.609375 25.390625
L 58.015625 25.390625
L 58.015625 17.1875
L 47.609375 17.1875
L 47.609375 0
L 37.796875 0
L 37.796875 17.1875
L 4.890625 17.1875
L 4.890625 26.703125
z
" id="DejaVuSans-52"/>
      </defs>
      <g transform="translate(421.672 368.380344)scale(0.234 -0.234)">
       <use transform="translate(0 0.684375)" xlink:href="#DejaVuSans-49"/>
       <use transform="translate(63.623047 0.684375)" xlink:href="#DejaVuSans-48"/>
       <use transform="translate(128.203125 38.965625)scale(0.7)" xlink:href="#DejaVuSans-52"/>
      </g>
     </g>
    </g>
    <g id="xtick_5"/>
    <g id="xtick_6"/>
    <g id="xtick_7"/>
    <g id="xtick_8"/>
    <g id="xtick_9"/>
    <g id="xtick_10"/>
    <g id="xtick_11"/>
    <g id="xtick_12"/>
    <g id="xtick_13"/>
    <g id="xtick_14"/>
    <g id="xtick_15"/>
    <g id="xtick_16"/>
    <g id="xtick_17"/>
    <g id="xtick_18"/>
    <g id="xtick_19"/>
    <g id="xtick_20"/>
    <g id="xtick_21"/>
    <g id="xtick_22"/>
    <g id="xtick_23"/>
    <g id="xtick_24"/>
    <g id="xtick_25"/>
    <g id="xtick_26"/>
    <g id="xtick_27"/>
    <g id="xtick_28"/>
    <g id="xtick_29"/>
    <g id="xtick_30"/>
    <g id="xtick_31"/>
    <g id="xtick_32"/>
    <g id="xtick_33"/>
    <g id="xtick_34"/>
    <g id="xtick_35"/>
    <g id="xtick_36"/>
    <g id="xtick_37"/>
    <g id="xtick_38"/>
    <g id="xtick_39"/>
    <g id="xtick_40"/>
    <g id="xtick_41"/>
    <g id="xtick_42"/>
    <g id="xtick_43"/>
    <g id="xtick_44"/>
    <g id="text_5">
     <!-- #samples -->
     <defs>
      <path d="M 51.125 44
L 36.921875 44
L 32.8125 27.6875
L 47.125 27.6875
z
M 43.796875 71.78125
L 38.71875 51.515625
L 52.984375 51.515625
L 58.109375 71.78125
L 65.921875 71.78125
L 60.890625 51.515625
L 76.125 51.515625
L 76.125 44
L 58.984375 44
L 54.984375 27.6875
L 70.515625 27.6875
L 70.515625 20.21875
L 53.078125 20.21875
L 48 0
L 40.1875 0
L 45.21875 20.21875
L 30.90625 20.21875
L 25.875 0
L 18.015625 0
L 23.09375 20.21875
L 7.71875 20.21875
L 7.71875 27.6875
L 24.90625 27.6875
L 29 44
L 13.28125 44
L 13.28125 51.515625
L 30.90625 51.515625
L 35.890625 71.78125
z
" id="DejaVuSans-35"/>
      <path d="M 44.28125 53.078125
L 44.28125 44.578125
Q 40.484375 46.53125 36.375 47.5
Q 32.28125 48.484375 27.875 48.484375
Q 21.1875 48.484375 17.84375 46.4375
Q 14.5 44.390625 14.5 40.28125
Q 14.5 37.15625 16.890625 35.375
Q 19.28125 33.59375 26.515625 31.984375
L 29.59375 31.296875
Q 39.15625 29.25 43.1875 25.515625
Q 47.21875 21.78125 47.21875 15.09375
Q 47.21875 7.46875 41.1875 3.015625
Q 35.15625 -1.421875 24.609375 -1.421875
Q 20.21875 -1.421875 15.453125 -0.5625
Q 10.6875 0.296875 5.421875 2
L 5.421875 11.28125
Q 10.40625 8.6875 15.234375 7.390625
Q 20.0625 6.109375 24.8125 6.109375
Q 31.15625 6.109375 34.5625 8.28125
Q 37.984375 10.453125 37.984375 14.40625
Q 37.984375 18.0625 35.515625 20.015625
Q 33.0625 21.96875 24.703125 23.78125
L 21.578125 24.515625
Q 13.234375 26.265625 9.515625 29.90625
Q 5.8125 33.546875 5.8125 39.890625
Q 5.8125 47.609375 11.28125 51.796875
Q 16.75 56 26.8125 56
Q 31.78125 56 36.171875 55.265625
Q 40.578125 54.546875 44.28125 53.078125
z
" id="DejaVuSans-115"/>
      <path d="M 34.28125 27.484375
Q 23.390625 27.484375 19.1875 25
Q 14.984375 22.515625 14.984375 16.5
Q 14.984375 11.71875 18.140625 8.90625
Q 21.296875 6.109375 26.703125 6.109375
Q 34.1875 6.109375 38.703125 11.40625
Q 43.21875 16.703125 43.21875 25.484375
L 43.21875 27.484375
z
M 52.203125 31.203125
L 52.203125 0
L 43.21875 0
L 43.21875 8.296875
Q 40.140625 3.328125 35.546875 0.953125
Q 30.953125 -1.421875 24.3125 -1.421875
Q 15.921875 -1.421875 10.953125 3.296875
Q 6 8.015625 6 15.921875
Q 6 25.140625 12.171875 29.828125
Q 18.359375 34.515625 30.609375 34.515625
L 43.21875 34.515625
L 43.21875 35.40625
Q 43.21875 41.609375 39.140625 45
Q 35.0625 48.390625 27.6875 48.390625
Q 23 48.390625 18.546875 47.265625
Q 14.109375 46.140625 10.015625 43.890625
L 10.015625 52.203125
Q 14.9375 54.109375 19.578125 55.046875
Q 24.21875 56 28.609375 56
Q 40.484375 56 46.34375 49.84375
Q 52.203125 43.703125 52.203125 31.203125
z
" id="DejaVuSans-97"/>
      <path d="M 52 44.1875
Q 55.375 50.25 60.0625 53.125
Q 64.75 56 71.09375 56
Q 79.640625 56 84.28125 50.015625
Q 88.921875 44.046875 88.921875 33.015625
L 88.921875 0
L 79.890625 0
L 79.890625 32.71875
Q 79.890625 40.578125 77.09375 44.375
Q 74.3125 48.1875 68.609375 48.1875
Q 61.625 48.1875 57.5625 43.546875
Q 53.515625 38.921875 53.515625 30.90625
L 53.515625 0
L 44.484375 0
L 44.484375 32.71875
Q 44.484375 40.625 41.703125 44.40625
Q 38.921875 48.1875 33.109375 48.1875
Q 26.21875 48.1875 22.15625 43.53125
Q 18.109375 38.875 18.109375 30.90625
L 18.109375 0
L 9.078125 0
L 9.078125 54.6875
L 18.109375 54.6875
L 18.109375 46.1875
Q 21.1875 51.21875 25.484375 53.609375
Q 29.78125 56 35.6875 56
Q 41.65625 56 45.828125 52.96875
Q 50 49.953125 52 44.1875
z
" id="DejaVuSans-109"/>
      <path d="M 18.109375 8.203125
L 18.109375 -20.796875
L 9.078125 -20.796875
L 9.078125 54.6875
L 18.109375 54.6875
L 18.109375 46.390625
Q 20.953125 51.265625 25.265625 53.625
Q 29.59375 56 35.59375 56
Q 45.5625 56 51.78125 48.09375
Q 58.015625 40.1875 58.015625 27.296875
Q 58.015625 14.40625 51.78125 6.484375
Q 45.5625 -1.421875 35.59375 -1.421875
Q 29.59375 -1.421875 25.265625 0.953125
Q 20.953125 3.328125 18.109375 8.203125
z
M 48.6875 27.296875
Q 48.6875 37.203125 44.609375 42.84375
Q 40.53125 48.484375 33.40625 48.484375
Q 26.265625 48.484375 22.1875 42.84375
Q 18.109375 37.203125 18.109375 27.296875
Q 18.109375 17.390625 22.1875 11.75
Q 26.265625 6.109375 33.40625 6.109375
Q 40.53125 6.109375 44.609375 11.75
Q 48.6875 17.390625 48.6875 27.296875
z
" id="DejaVuSans-112"/>
      <path d="M 9.421875 75.984375
L 18.40625 75.984375
L 18.40625 0
L 9.421875 0
z
" id="DejaVuSans-108"/>
      <path d="M 56.203125 29.59375
L 56.203125 25.203125
L 14.890625 25.203125
Q 15.484375 15.921875 20.484375 11.0625
Q 25.484375 6.203125 34.421875 6.203125
Q 39.59375 6.203125 44.453125 7.46875
Q 49.3125 8.734375 54.109375 11.28125
L 54.109375 2.78125
Q 49.265625 0.734375 44.1875 -0.34375
Q 39.109375 -1.421875 33.890625 -1.421875
Q 20.796875 -1.421875 13.15625 6.1875
Q 5.515625 13.8125 5.515625 26.8125
Q 5.515625 40.234375 12.765625 48.109375
Q 20.015625 56 32.328125 56
Q 43.359375 56 49.78125 48.890625
Q 56.203125 41.796875 56.203125 29.59375
z
M 47.21875 32.234375
Q 47.125 39.59375 43.09375 43.984375
Q 39.0625 48.390625 32.421875 48.390625
Q 24.90625 48.390625 20.390625 44.140625
Q 15.875 39.890625 15.1875 32.171875
z
" id="DejaVuSans-101"/>
     </defs>
     <g transform="translate(232.694063 397.00275)scale(0.26 -0.26)">
      <use xlink:href="#DejaVuSans-35"/>
      <use x="83.789062" xlink:href="#DejaVuSans-115"/>
      <use x="135.888672" xlink:href="#DejaVuSans-97"/>
      <use x="197.167969" xlink:href="#DejaVuSans-109"/>
      <use x="294.580078" xlink:href="#DejaVuSans-112"/>
      <use x="358.056641" xlink:href="#DejaVuSans-108"/>
      <use x="385.839844" xlink:href="#DejaVuSans-101"/>
      <use x="447.363281" xlink:href="#DejaVuSans-115"/>
     </g>
    </g>
   </g>
   <g id="matplotlib.axis_2">
    <g id="ytick_1"/>
    <g id="ytick_2"/>
    <g id="ytick_3"/>
    <g id="text_6">
     <!-- bias -->
     <defs>
      <path d="M 48.6875 27.296875
Q 48.6875 37.203125 44.609375 42.84375
Q 40.53125 48.484375 33.40625 48.484375
Q 26.265625 48.484375 22.1875 42.84375
Q 18.109375 37.203125 18.109375 27.296875
Q 18.109375 17.390625 22.1875 11.75
Q 26.265625 6.109375 33.40625 6.109375
Q 40.53125 6.109375 44.609375 11.75
Q 48.6875 17.390625 48.6875 27.296875
z
M 18.109375 46.390625
Q 20.953125 51.265625 25.265625 53.625
Q 29.59375 56 35.59375 56
Q 45.5625 56 51.78125 48.09375
Q 58.015625 40.1875 58.015625 27.296875
Q 58.015625 14.40625 51.78125 6.484375
Q 45.5625 -1.421875 35.59375 -1.421875
Q 29.59375 -1.421875 25.265625 0.953125
Q 20.953125 3.328125 18.109375 8.203125
L 18.109375 0
L 9.078125 0
L 9.078125 75.984375
L 18.109375 75.984375
z
" id="DejaVuSans-98"/>
      <path d="M 9.421875 54.6875
L 18.40625 54.6875
L 18.40625 0
L 9.421875 0
z
M 9.421875 75.984375
L 18.40625 75.984375
L 18.40625 64.59375
L 9.421875 64.59375
z
" id="DejaVuSans-105"/>
     </defs>
     <g transform="translate(47.152813 223.913281)rotate(-90)scale(0.26 -0.26)">
      <use xlink:href="#DejaVuSans-98"/>
      <use x="63.476562" xlink:href="#DejaVuSans-105"/>
      <use x="91.259766" xlink:href="#DejaVuSans-97"/>
      <use x="152.539062" xlink:href="#DejaVuSans-115"/>
     </g>
    </g>
   </g>
   <g id="line2d_1">
    <path clip-path="url(#pbfcd645aa2)" d="M 56.56 172.398572
L 90.997857 157.265283
L 125.435714 133.268996
L 159.873571 114.542763
L 194.311429 100.466701
L 228.749286 96.264149
L 263.187143 99.252237
L 297.625 101.005608
L 332.062857 101.344799
L 366.500714 101.471565
L 400.938571 101.460459
L 435.376429 101.46432
L 469.814286 101.450827
L 504.252143 101.446746
L 538.69 101.447798
" style="fill:none;stroke:#d62728;stroke-linecap:square;stroke-width:8;"/>
   </g>
   <g id="line2d_2">
    <path clip-path="url(#pbfcd645aa2)" d="M 56.56 172.398572
L 90.997857 160.678323
L 125.435714 142.063732
L 159.873571 127.513936
L 194.311429 116.381456
L 228.749286 111.332365
L 263.187143 108.297163
L 297.625 104.960814
L 332.062857 103.429731
L 366.500714 102.785778
L 400.938571 102.363926
L 435.376429 102.213665
L 469.814286 102.122965
L 504.252143 102.086302
L 538.69 102.086209
" style="fill:none;stroke:#d62728;stroke-linecap:square;stroke-opacity:0.2;stroke-width:2;"/>
   </g>
   <g id="line2d_3">
    <path clip-path="url(#pbfcd645aa2)" d="M 56.56 172.398572
L 90.997857 153.852243
L 125.435714 124.47426
L 159.873571 101.571591
L 194.311429 84.551947
L 228.749286 81.195932
L 263.187143 90.207311
L 297.625 97.050403
L 332.062857 99.259867
L 366.500714 100.157352
L 400.938571 100.556992
L 435.376429 100.714976
L 469.814286 100.778688
L 504.252143 100.807191
L 538.69 100.809386
" style="fill:none;stroke:#d62728;stroke-linecap:square;stroke-opacity:0.2;stroke-width:2;"/>
   </g>
   <g id="line2d_4">
    <path clip-path="url(#pbfcd645aa2)" d="M 56.56 292.224869
L 90.997857 274.207445
L 125.435714 250.441613
L 159.873571 230.042297
L 194.311429 207.944199
L 228.749286 186.421828
L 263.187143 166.56953
L 297.625 147.967509
L 332.062857 132.15377
L 366.500714 120.015096
L 400.938571 111.835747
L 435.376429 106.923212
L 469.814286 104.206023
L 504.252143 102.799521
L 538.69 102.099051
" style="fill:none;stroke:#1f77b4;stroke-linecap:square;stroke-width:8;"/>
   </g>
   <g id="line2d_5">
    <path clip-path="url(#pbfcd645aa2)" d="M 56.56 292.224869
L 90.997857 274.777491
L 125.435714 251.258792
L 159.873571 230.858172
L 194.311429 208.755793
L 228.749286 187.249492
L 263.187143 167.402501
L 297.625 148.752529
L 332.062857 132.918166
L 366.500714 120.770209
L 400.938571 112.533299
L 435.376429 107.600821
L 469.814286 104.85775
L 504.252143 103.433538
L 538.69 102.736235
" style="fill:none;stroke:#1f77b4;stroke-linecap:square;stroke-opacity:0.2;stroke-width:2;"/>
   </g>
   <g id="line2d_6">
    <path clip-path="url(#pbfcd645aa2)" d="M 56.56 292.224869
L 90.997857 273.637399
L 125.435714 249.624433
L 159.873571 229.226421
L 194.311429 207.132606
L 228.749286 185.594165
L 263.187143 165.736558
L 297.625 147.182489
L 332.062857 131.389374
L 366.500714 119.259984
L 400.938571 111.138194
L 435.376429 106.245604
L 469.814286 103.554295
L 504.252143 102.165503
L 538.69 101.461868
" style="fill:none;stroke:#1f77b4;stroke-linecap:square;stroke-opacity:0.2;stroke-width:2;"/>
   </g>
   <g id="line2d_7">
    <path clip-path="url(#pbfcd645aa2)" d="M 56.56 259.170449
L 90.997857 241.187029
L 125.435714 217.564013
L 159.873571 197.383559
L 194.311429 175.792915
L 228.749286 155.422224
L 263.187143 137.827222
L 297.625 123.189851
L 332.062857 112.953172
L 366.500714 106.968463
L 400.938571 103.868024
L 435.376429 102.479365
L 469.814286 101.86842
L 504.252143 101.616966
L 538.69 101.517049
" style="fill:none;stroke:#2ca02c;stroke-linecap:square;stroke-width:8;"/>
   </g>
   <g id="line2d_8">
    <path clip-path="url(#pbfcd645aa2)" d="M 56.56 259.170449
L 90.997857 242.831834
L 125.435714 219.921895
L 159.873571 199.737678
L 194.311429 178.050987
L 228.749286 157.651037
L 263.187143 139.927054
L 297.625 124.919634
L 332.062857 114.321021
L 366.500714 108.066937
L 400.938571 104.719241
L 435.376429 103.220613
L 469.814286 102.546435
L 504.252143 102.258391
L 538.69 102.15733
" style="fill:none;stroke:#2ca02c;stroke-linecap:square;stroke-opacity:0.2;stroke-width:2;"/>
   </g>
   <g id="line2d_9">
    <path clip-path="url(#pbfcd645aa2)" d="M 56.56 259.170449
L 90.997857 239.542224
L 125.435714 215.206132
L 159.873571 195.02944
L 194.311429 173.534842
L 228.749286 153.193411
L 263.187143 135.727391
L 297.625 121.460069
L 332.062857 111.585323
L 366.500714 105.869989
L 400.938571 103.016806
L 435.376429 101.738117
L 469.814286 101.190405
L 504.252143 100.975541
L 538.69 100.876769
" style="fill:none;stroke:#2ca02c;stroke-linecap:square;stroke-opacity:0.2;stroke-width:2;"/>
   </g>
   <g id="line2d_10">
    <path clip-path="url(#pbfcd645aa2)" d="M 152.986 341.1
L 152.986 53.52
" style="fill:none;stroke:#000000;stroke-dasharray:7.4,3.2;stroke-dashoffset:0;stroke-opacity:0.2;stroke-width:2;"/>
   </g>
   <g id="line2d_11">
    <path clip-path="url(#pbfcd645aa2)" d="M 249.412 341.1
L 249.412 53.52
" style="fill:none;stroke:#000000;stroke-dasharray:7.4,3.2;stroke-dashoffset:0;stroke-opacity:0.2;stroke-width:2;"/>
   </g>
   <g id="line2d_12">
    <path clip-path="url(#pbfcd645aa2)" d="M 345.838 341.1
L 345.838 53.52
" style="fill:none;stroke:#000000;stroke-dasharray:7.4,3.2;stroke-dashoffset:0;stroke-opacity:0.2;stroke-width:2;"/>
   </g>
   <g id="line2d_13">
    <path clip-path="url(#pbfcd645aa2)" d="M 442.264 341.1
L 442.264 53.52
" style="fill:none;stroke:#000000;stroke-dasharray:7.4,3.2;stroke-dashoffset:0;stroke-opacity:0.2;stroke-width:2;"/>
   </g>
   <g id="line2d_14">
    <path clip-path="url(#pbfcd645aa2)" d="M 56.56 293.17
L 538.69 293.17
" style="fill:none;stroke:#000000;stroke-dasharray:7.4,3.2;stroke-dashoffset:0;stroke-opacity:0.2;stroke-width:2;"/>
   </g>
   <g id="line2d_15">
    <path clip-path="url(#pbfcd645aa2)" d="M 56.56 197.31
L 538.69 197.31
" style="fill:none;stroke:#000000;stroke-dasharray:7.4,3.2;stroke-dashoffset:0;stroke-opacity:0.2;stroke-width:2;"/>
   </g>
   <g id="line2d_16">
    <path clip-path="url(#pbfcd645aa2)" d="M 56.56 101.45
L 538.69 101.45
" style="fill:none;stroke:#000000;stroke-dasharray:7.4,3.2;stroke-dashoffset:0;stroke-opacity:0.2;stroke-width:2;"/>
   </g>
   <g id="text_7">
    <!-- $\alpha = 0.1$ -->
    <defs>
     <path d="M 40.921875 25.4375
L 40.96875 36.71875
Q 41.015625 48.25 32.328125 48.296875
Q 25.828125 48.34375 21.78125 42.921875
Q 16.703125 36.234375 14.984375 27.296875
Q 12.890625 16.546875 15.53125 11.421875
Q 18.265625 6.203125 24.171875 6.203125
Q 30.71875 6.203125 36.234375 16.609375
z
M 33.84375 55.90625
Q 49.078125 56.15625 48.875 40.375
Q 48.875 40.375 56.5 54.6875
L 64.5 54.6875
L 48.734375 25.046875
L 48.578125 14.359375
Q 48.578125 11.96875 49.90625 9.96875
Q 51.421875 7.625 52.984375 7.625
L 57.328125 7.625
L 55.859375 0
L 50.4375 0
Q 45.84375 0 42.53125 4.109375
Q 40.96875 6.15625 40.921875 10.453125
Q 37.75 5.21875 32.28125 0.78125
Q 29.6875 -1.265625 22.703125 -1.21875
Q 11.28125 -1.125 7.125 6.203125
Q 2.875 13.8125 5.515625 27.296875
Q 8.34375 41.796875 15.765625 48.390625
Q 24.125 55.765625 33.84375 55.90625
z
" id="DejaVuSans-Oblique-945"/>
     <path d="M 10.59375 45.40625
L 73.1875 45.40625
L 73.1875 37.203125
L 10.59375 37.203125
z
M 10.59375 25.484375
L 73.1875 25.484375
L 73.1875 17.1875
L 10.59375 17.1875
z
" id="DejaVuSans-61"/>
     <path d="M 10.6875 12.40625
L 21 12.40625
L 21 0
L 10.6875 0
z
" id="DejaVuSans-46"/>
    </defs>
    <g transform="translate(252.385 47.52)scale(0.26 -0.26)">
     <use transform="translate(0 0.78125)" xlink:href="#DejaVuSans-Oblique-945"/>
     <use transform="translate(85.400391 0.78125)" xlink:href="#DejaVuSans-61"/>
     <use transform="translate(188.671875 0.78125)" xlink:href="#DejaVuSans-48"/>
     <use transform="translate(252.294922 0.78125)" xlink:href="#DejaVuSans-46"/>
     <use transform="translate(284.082031 0.78125)" xlink:href="#DejaVuSans-49"/>
    </g>
   </g>
   <g id="legend_1">
    <g id="patch_3">
     <path d="M 303.216531 329.4
L 522.31 329.4
Q 526.99 329.4 526.99 324.72
L 526.99 224.019562
Q 526.99 219.339562 522.31 219.339562
L 303.216531 219.339562
Q 298.536531 219.339562 298.536531 224.019562
L 298.536531 324.72
Q 298.536531 329.4 303.216531 329.4
z
" style="fill:#ffffff;opacity:0.8;stroke:#cccccc;stroke-linejoin:miter;"/>
    </g>
    <g id="line2d_17">
     <path d="M 307.896531 238.289906
L 354.696531 238.289906
" style="fill:none;stroke:#d62728;stroke-linecap:square;stroke-width:8;"/>
    </g>
    <g id="line2d_18"/>
    <g id="text_8">
     <!-- NSB -->
     <defs>
      <path d="M 9.8125 72.90625
L 23.09375 72.90625
L 55.421875 11.921875
L 55.421875 72.90625
L 64.984375 72.90625
L 64.984375 0
L 51.703125 0
L 19.390625 60.984375
L 19.390625 0
L 9.8125 0
z
" id="DejaVuSans-78"/>
      <path d="M 53.515625 70.515625
L 53.515625 60.890625
Q 47.90625 63.578125 42.921875 64.890625
Q 37.9375 66.21875 33.296875 66.21875
Q 25.25 66.21875 20.875 63.09375
Q 16.5 59.96875 16.5 54.203125
Q 16.5 49.359375 19.40625 46.890625
Q 22.3125 44.4375 30.421875 42.921875
L 36.375 41.703125
Q 47.40625 39.59375 52.65625 34.296875
Q 57.90625 29 57.90625 20.125
Q 57.90625 9.515625 50.796875 4.046875
Q 43.703125 -1.421875 29.984375 -1.421875
Q 24.8125 -1.421875 18.96875 -0.25
Q 13.140625 0.921875 6.890625 3.21875
L 6.890625 13.375
Q 12.890625 10.015625 18.65625 8.296875
Q 24.421875 6.59375 29.984375 6.59375
Q 38.421875 6.59375 43.015625 9.90625
Q 47.609375 13.234375 47.609375 19.390625
Q 47.609375 24.75 44.3125 27.78125
Q 41.015625 30.8125 33.5 32.328125
L 27.484375 33.5
Q 16.453125 35.6875 11.515625 40.375
Q 6.59375 45.0625 6.59375 53.421875
Q 6.59375 63.09375 13.40625 68.65625
Q 20.21875 74.21875 32.171875 74.21875
Q 37.3125 74.21875 42.625 73.28125
Q 47.953125 72.359375 53.515625 70.515625
z
" id="DejaVuSans-83"/>
      <path d="M 19.671875 34.8125
L 19.671875 8.109375
L 35.5 8.109375
Q 43.453125 8.109375 47.28125 11.40625
Q 51.125 14.703125 51.125 21.484375
Q 51.125 28.328125 47.28125 31.5625
Q 43.453125 34.8125 35.5 34.8125
z
M 19.671875 64.796875
L 19.671875 42.828125
L 34.28125 42.828125
Q 41.5 42.828125 45.03125 45.53125
Q 48.578125 48.25 48.578125 53.8125
Q 48.578125 59.328125 45.03125 62.0625
Q 41.5 64.796875 34.28125 64.796875
z
M 9.8125 72.90625
L 35.015625 72.90625
Q 46.296875 72.90625 52.390625 68.21875
Q 58.5 63.53125 58.5 54.890625
Q 58.5 48.1875 55.375 44.234375
Q 52.25 40.28125 46.1875 39.3125
Q 53.46875 37.75 57.5 32.78125
Q 61.53125 27.828125 61.53125 20.40625
Q 61.53125 10.640625 54.890625 5.3125
Q 48.25 0 35.984375 0
L 9.8125 0
z
" id="DejaVuSans-66"/>
     </defs>
     <g transform="translate(373.416531 246.479906)scale(0.234 -0.234)">
      <use xlink:href="#DejaVuSans-78"/>
      <use x="74.804688" xlink:href="#DejaVuSans-83"/>
      <use x="138.28125" xlink:href="#DejaVuSans-66"/>
     </g>
    </g>
    <g id="line2d_19">
     <path d="M 307.896531 272.636719
L 354.696531 272.636719
" style="fill:none;stroke:#1f77b4;stroke-linecap:square;stroke-width:8;"/>
    </g>
    <g id="line2d_20"/>
    <g id="text_9">
     <!-- Plugin -->
     <defs>
      <path d="M 19.671875 64.796875
L 19.671875 37.40625
L 32.078125 37.40625
Q 38.96875 37.40625 42.71875 40.96875
Q 46.484375 44.53125 46.484375 51.125
Q 46.484375 57.671875 42.71875 61.234375
Q 38.96875 64.796875 32.078125 64.796875
z
M 9.8125 72.90625
L 32.078125 72.90625
Q 44.34375 72.90625 50.609375 67.359375
Q 56.890625 61.8125 56.890625 51.125
Q 56.890625 40.328125 50.609375 34.8125
Q 44.34375 29.296875 32.078125 29.296875
L 19.671875 29.296875
L 19.671875 0
L 9.8125 0
z
" id="DejaVuSans-80"/>
      <path d="M 8.5 21.578125
L 8.5 54.6875
L 17.484375 54.6875
L 17.484375 21.921875
Q 17.484375 14.15625 20.5 10.265625
Q 23.53125 6.390625 29.59375 6.390625
Q 36.859375 6.390625 41.078125 11.03125
Q 45.3125 15.671875 45.3125 23.6875
L 45.3125 54.6875
L 54.296875 54.6875
L 54.296875 0
L 45.3125 0
L 45.3125 8.40625
Q 42.046875 3.421875 37.71875 1
Q 33.40625 -1.421875 27.6875 -1.421875
Q 18.265625 -1.421875 13.375 4.4375
Q 8.5 10.296875 8.5 21.578125
z
M 31.109375 56
z
" id="DejaVuSans-117"/>
      <path d="M 45.40625 27.984375
Q 45.40625 37.75 41.375 43.109375
Q 37.359375 48.484375 30.078125 48.484375
Q 22.859375 48.484375 18.828125 43.109375
Q 14.796875 37.75 14.796875 27.984375
Q 14.796875 18.265625 18.828125 12.890625
Q 22.859375 7.515625 30.078125 7.515625
Q 37.359375 7.515625 41.375 12.890625
Q 45.40625 18.265625 45.40625 27.984375
z
M 54.390625 6.78125
Q 54.390625 -7.171875 48.1875 -13.984375
Q 42 -20.796875 29.203125 -20.796875
Q 24.46875 -20.796875 20.265625 -20.09375
Q 16.0625 -19.390625 12.109375 -17.921875
L 12.109375 -9.1875
Q 16.0625 -11.328125 19.921875 -12.34375
Q 23.78125 -13.375 27.78125 -13.375
Q 36.625 -13.375 41.015625 -8.765625
Q 45.40625 -4.15625 45.40625 5.171875
L 45.40625 9.625
Q 42.625 4.78125 38.28125 2.390625
Q 33.9375 0 27.875 0
Q 17.828125 0 11.671875 7.65625
Q 5.515625 15.328125 5.515625 27.984375
Q 5.515625 40.671875 11.671875 48.328125
Q 17.828125 56 27.875 56
Q 33.9375 56 38.28125 53.609375
Q 42.625 51.21875 45.40625 46.390625
L 45.40625 54.6875
L 54.390625 54.6875
z
" id="DejaVuSans-103"/>
      <path d="M 54.890625 33.015625
L 54.890625 0
L 45.90625 0
L 45.90625 32.71875
Q 45.90625 40.484375 42.875 44.328125
Q 39.84375 48.1875 33.796875 48.1875
Q 26.515625 48.1875 22.3125 43.546875
Q 18.109375 38.921875 18.109375 30.90625
L 18.109375 0
L 9.078125 0
L 9.078125 54.6875
L 18.109375 54.6875
L 18.109375 46.1875
Q 21.34375 51.125 25.703125 53.5625
Q 30.078125 56 35.796875 56
Q 45.21875 56 50.046875 50.171875
Q 54.890625 44.34375 54.890625 33.015625
z
" id="DejaVuSans-110"/>
     </defs>
     <g transform="translate(373.416531 280.826719)scale(0.234 -0.234)">
      <use xlink:href="#DejaVuSans-80"/>
      <use x="60.302734" xlink:href="#DejaVuSans-108"/>
      <use x="88.085938" xlink:href="#DejaVuSans-117"/>
      <use x="151.464844" xlink:href="#DejaVuSans-103"/>
      <use x="214.941406" xlink:href="#DejaVuSans-105"/>
      <use x="242.724609" xlink:href="#DejaVuSans-110"/>
     </g>
    </g>
    <g id="line2d_21">
     <path d="M 307.896531 306.983531
L 354.696531 306.983531
" style="fill:none;stroke:#2ca02c;stroke-linecap:square;stroke-width:8;"/>
    </g>
    <g id="line2d_22"/>
    <g id="text_10">
     <!-- Grassberger -->
     <defs>
      <path d="M 59.515625 10.40625
L 59.515625 29.984375
L 43.40625 29.984375
L 43.40625 38.09375
L 69.28125 38.09375
L 69.28125 6.78125
Q 63.578125 2.734375 56.6875 0.65625
Q 49.8125 -1.421875 42 -1.421875
Q 24.90625 -1.421875 15.25 8.5625
Q 5.609375 18.5625 5.609375 36.375
Q 5.609375 54.25 15.25 64.234375
Q 24.90625 74.21875 42 74.21875
Q 49.125 74.21875 55.546875 72.453125
Q 61.96875 70.703125 67.390625 67.28125
L 67.390625 56.78125
Q 61.921875 61.421875 55.765625 63.765625
Q 49.609375 66.109375 42.828125 66.109375
Q 29.4375 66.109375 22.71875 58.640625
Q 16.015625 51.171875 16.015625 36.375
Q 16.015625 21.625 22.71875 14.15625
Q 29.4375 6.6875 42.828125 6.6875
Q 48.046875 6.6875 52.140625 7.59375
Q 56.25 8.5 59.515625 10.40625
z
" id="DejaVuSans-71"/>
      <path d="M 41.109375 46.296875
Q 39.59375 47.171875 37.8125 47.578125
Q 36.03125 48 33.890625 48
Q 26.265625 48 22.1875 43.046875
Q 18.109375 38.09375 18.109375 28.8125
L 18.109375 0
L 9.078125 0
L 9.078125 54.6875
L 18.109375 54.6875
L 18.109375 46.1875
Q 20.953125 51.171875 25.484375 53.578125
Q 30.03125 56 36.53125 56
Q 37.453125 56 38.578125 55.875
Q 39.703125 55.765625 41.0625 55.515625
z
" id="DejaVuSans-114"/>
     </defs>
     <g transform="translate(373.416531 315.173531)scale(0.234 -0.234)">
      <use xlink:href="#DejaVuSans-71"/>
      <use x="77.490234" xlink:href="#DejaVuSans-114"/>
      <use x="118.603516" xlink:href="#DejaVuSans-97"/>
      <use x="179.882812" xlink:href="#DejaVuSans-115"/>
      <use x="231.982422" xlink:href="#DejaVuSans-115"/>
      <use x="284.082031" xlink:href="#DejaVuSans-98"/>
      <use x="347.558594" xlink:href="#DejaVuSans-101"/>
      <use x="409.082031" xlink:href="#DejaVuSans-114"/>
      <use x="450.179688" xlink:href="#DejaVuSans-103"/>
      <use x="513.65625" xlink:href="#DejaVuSans-101"/>
      <use x="575.179688" xlink:href="#DejaVuSans-114"/>
     </g>
    </g>
   </g>
  </g>
  <g id="axes_2">
   <g id="patch_4">
    <path d="M 637.47 341.1
L 1119.6 341.1
L 1119.6 53.52
L 637.47 53.52
z
" style="fill:#ffffff;"/>
   </g>
   <g id="PolyCollection_4">
    <defs>
     <path d="M 637.47 -212.005394
L 637.47 -212.005394
L 671.907857 -227.246666
L 706.345714 -252.144306
L 740.783571 -268.819758
L 775.221429 -287.376467
L 809.659286 -303.125738
L 844.097143 -315.192882
L 878.535 -323.44718
L 912.972857 -327.31049
L 947.410714 -329.414001
L 981.848571 -330.026575
L 1016.286429 -330.314803
L 1050.724286 -330.429671
L 1085.162143 -330.491309
L 1119.6 -330.514383
L 1119.6 -330.58683
L 1119.6 -330.58683
L 1085.162143 -330.609338
L 1050.724286 -330.65627
L 1016.286429 -330.799247
L 981.848571 -330.979322
L 947.410714 -330.86814
L 912.972857 -330.202368
L 878.535 -328.342446
L 844.097143 -323.928949
L 809.659286 -314.695266
L 775.221429 -298.624137
L 740.783571 -276.980736
L 706.345714 -252.144306
L 671.907857 -227.246666
L 637.47 -212.005394
z
" id="m6bf685816c" style="stroke:#d62728;stroke-opacity:0.2;"/>
    </defs>
    <g clip-path="url(#pef775276d8)">
     <use style="fill:#d62728;fill-opacity:0.2;stroke:#d62728;stroke-opacity:0.2;" x="0" xlink:href="#m6bf685816c" y="432"/>
    </g>
   </g>
   <g id="PolyCollection_5">
    <defs>
     <path d="M 637.47 -92.179097
L 637.47 -92.179097
L 671.907857 -110.214556
L 706.345714 -134.056137
L 740.783571 -154.29862
L 775.221429 -176.635489
L 809.659286 -198.748344
L 844.097143 -219.844553
L 878.535 -241.072351
L 912.972857 -261.659748
L 947.410714 -281.399416
L 981.848571 -299.162036
L 1016.286429 -313.470934
L 1050.724286 -322.773316
L 1085.162143 -327.337329
L 1119.6 -329.185158
L 1119.6 -329.257642
L 1119.6 -329.257642
L 1085.162143 -327.459033
L 1050.724286 -322.997718
L 1016.286429 -313.820101
L 981.848571 -299.606534
L 947.410714 -281.875682
L 912.972857 -262.190969
L 878.535 -241.588316
L 844.097143 -220.384495
L 809.659286 -199.29529
L 775.221429 -177.174772
L 740.783571 -154.805102
L 706.345714 -134.056137
L 671.907857 -110.214556
L 637.47 -92.179097
z
" id="m183d7fa55c" style="stroke:#1f77b4;stroke-opacity:0.2;"/>
    </defs>
    <g clip-path="url(#pef775276d8)">
     <use style="fill:#1f77b4;fill-opacity:0.2;stroke:#1f77b4;stroke-opacity:0.2;" x="0" xlink:href="#m183d7fa55c" y="432"/>
    </g>
   </g>
   <g id="PolyCollection_6">
    <defs>
     <path d="M 637.47 -125.233516
L 637.47 -125.233516
L 671.907857 -143.268976
L 706.345714 -167.110557
L 740.783571 -186.838488
L 775.221429 -209.089981
L 809.659286 -231.066436
L 844.097143 -251.889527
L 878.535 -272.514286
L 912.972857 -291.687592
L 947.410714 -308.691341
L 981.848571 -321.27736
L 1016.286429 -328.144527
L 1050.724286 -330.192618
L 1085.162143 -330.478645
L 1119.6 -330.511213
L 1119.6 -330.589893
L 1119.6 -330.589893
L 1085.162143 -330.616072
L 1050.724286 -330.513486
L 1016.286429 -328.790165
L 981.848571 -322.303962
L 947.410714 -309.93298
L 912.972857 -293.158086
L 878.535 -273.980906
L 844.097143 -253.437896
L 809.659286 -232.633318
L 775.221429 -210.646021
L 740.783571 -188.299883
L 706.345714 -167.110557
L 671.907857 -143.268976
L 637.47 -125.233516
z
" id="m3ae83a563e" style="stroke:#2ca02c;stroke-opacity:0.2;"/>
    </defs>
    <g clip-path="url(#pef775276d8)">
     <use style="fill:#2ca02c;fill-opacity:0.2;stroke:#2ca02c;stroke-opacity:0.2;" x="0" xlink:href="#m3ae83a563e" y="432"/>
    </g>
   </g>
   <g id="matplotlib.axis_3">
    <g id="xtick_45">
     <g id="text_11">
      <!-- $\mathdefault{10^{1}}$ -->
      <g transform="translate(713.304 368.380344)scale(0.234 -0.234)">
       <use transform="translate(0 0.684375)" xlink:href="#DejaVuSans-49"/>
       <use transform="translate(63.623047 0.684375)" xlink:href="#DejaVuSans-48"/>
       <use transform="translate(128.203125 38.965625)scale(0.7)" xlink:href="#DejaVuSans-49"/>
      </g>
     </g>
    </g>
    <g id="xtick_46">
     <g id="text_12">
      <!-- $\mathdefault{10^{2}}$ -->
      <g transform="translate(809.73 368.380344)scale(0.234 -0.234)">
       <use transform="translate(0 0.765625)" xlink:href="#DejaVuSans-49"/>
       <use transform="translate(63.623047 0.765625)" xlink:href="#DejaVuSans-48"/>
       <use transform="translate(128.203125 39.046875)scale(0.7)" xlink:href="#DejaVuSans-50"/>
      </g>
     </g>
    </g>
    <g id="xtick_47">
     <g id="text_13">
      <!-- $\mathdefault{10^{3}}$ -->
      <g transform="translate(906.156 368.380344)scale(0.234 -0.234)">
       <use transform="translate(0 0.765625)" xlink:href="#DejaVuSans-49"/>
       <use transform="translate(63.623047 0.765625)" xlink:href="#DejaVuSans-48"/>
       <use transform="translate(128.203125 39.046875)scale(0.7)" xlink:href="#DejaVuSans-51"/>
      </g>
     </g>
    </g>
    <g id="xtick_48">
     <g id="text_14">
      <!-- $\mathdefault{10^{4}}$ -->
      <g transform="translate(1002.582 368.380344)scale(0.234 -0.234)">
       <use transform="translate(0 0.684375)" xlink:href="#DejaVuSans-49"/>
       <use transform="translate(63.623047 0.684375)" xlink:href="#DejaVuSans-48"/>
       <use transform="translate(128.203125 38.965625)scale(0.7)" xlink:href="#DejaVuSans-52"/>
      </g>
     </g>
    </g>
    <g id="xtick_49"/>
    <g id="xtick_50"/>
    <g id="xtick_51"/>
    <g id="xtick_52"/>
    <g id="xtick_53"/>
    <g id="xtick_54"/>
    <g id="xtick_55"/>
    <g id="xtick_56"/>
    <g id="xtick_57"/>
    <g id="xtick_58"/>
    <g id="xtick_59"/>
    <g id="xtick_60"/>
    <g id="xtick_61"/>
    <g id="xtick_62"/>
    <g id="xtick_63"/>
    <g id="xtick_64"/>
    <g id="xtick_65"/>
    <g id="xtick_66"/>
    <g id="xtick_67"/>
    <g id="xtick_68"/>
    <g id="xtick_69"/>
    <g id="xtick_70"/>
    <g id="xtick_71"/>
    <g id="xtick_72"/>
    <g id="xtick_73"/>
    <g id="xtick_74"/>
    <g id="xtick_75"/>
    <g id="xtick_76"/>
    <g id="xtick_77"/>
    <g id="xtick_78"/>
    <g id="xtick_79"/>
    <g id="xtick_80"/>
    <g id="xtick_81"/>
    <g id="xtick_82"/>
    <g id="xtick_83"/>
    <g id="xtick_84"/>
    <g id="xtick_85"/>
    <g id="xtick_86"/>
    <g id="xtick_87"/>
    <g id="xtick_88"/>
    <g id="text_15">
     <!-- #samples -->
     <g transform="translate(813.604062 397.00275)scale(0.26 -0.26)">
      <use xlink:href="#DejaVuSans-35"/>
      <use x="83.789062" xlink:href="#DejaVuSans-115"/>
      <use x="135.888672" xlink:href="#DejaVuSans-97"/>
      <use x="197.167969" xlink:href="#DejaVuSans-109"/>
      <use x="294.580078" xlink:href="#DejaVuSans-112"/>
      <use x="358.056641" xlink:href="#DejaVuSans-108"/>
      <use x="385.839844" xlink:href="#DejaVuSans-101"/>
      <use x="447.363281" xlink:href="#DejaVuSans-115"/>
     </g>
    </g>
   </g>
   <g id="matplotlib.axis_4">
    <g id="ytick_4">
     <g id="text_16">
      <!-- −0.8 -->
      <defs>
       <path d="M 10.59375 35.5
L 73.1875 35.5
L 73.1875 27.203125
L 10.59375 27.203125
z
" id="DejaVuSans-8722"/>
       <path d="M 31.78125 34.625
Q 24.75 34.625 20.71875 30.859375
Q 16.703125 27.09375 16.703125 20.515625
Q 16.703125 13.921875 20.71875 10.15625
Q 24.75 6.390625 31.78125 6.390625
Q 38.8125 6.390625 42.859375 10.171875
Q 46.921875 13.96875 46.921875 20.515625
Q 46.921875 27.09375 42.890625 30.859375
Q 38.875 34.625 31.78125 34.625
z
M 21.921875 38.8125
Q 15.578125 40.375 12.03125 44.71875
Q 8.5 49.078125 8.5 55.328125
Q 8.5 64.0625 14.71875 69.140625
Q 20.953125 74.21875 31.78125 74.21875
Q 42.671875 74.21875 48.875 69.140625
Q 55.078125 64.0625 55.078125 55.328125
Q 55.078125 49.078125 51.53125 44.71875
Q 48 40.375 41.703125 38.8125
Q 48.828125 37.15625 52.796875 32.3125
Q 56.78125 27.484375 56.78125 20.515625
Q 56.78125 9.90625 50.3125 4.234375
Q 43.84375 -1.421875 31.78125 -1.421875
Q 19.734375 -1.421875 13.25 4.234375
Q 6.78125 9.90625 6.78125 20.515625
Q 6.78125 27.484375 10.78125 32.3125
Q 14.796875 37.15625 21.921875 38.8125
z
M 18.3125 54.390625
Q 18.3125 48.734375 21.84375 45.5625
Q 25.390625 42.390625 31.78125 42.390625
Q 38.140625 42.390625 41.71875 45.5625
Q 45.3125 48.734375 45.3125 54.390625
Q 45.3125 60.0625 41.71875 63.234375
Q 38.140625 66.40625 31.78125 66.40625
Q 25.390625 66.40625 21.84375 63.234375
Q 18.3125 60.0625 18.3125 54.390625
z
" id="DejaVuSans-56"/>
      </defs>
      <g transform="translate(571.148219 302.060172)scale(0.234 -0.234)">
       <use xlink:href="#DejaVuSans-8722"/>
       <use x="83.789062" xlink:href="#DejaVuSans-48"/>
       <use x="147.412109" xlink:href="#DejaVuSans-46"/>
       <use x="179.199219" xlink:href="#DejaVuSans-56"/>
      </g>
     </g>
    </g>
    <g id="ytick_5">
     <g id="text_17">
      <!-- −0.4 -->
      <g transform="translate(571.148219 206.200172)scale(0.234 -0.234)">
       <use xlink:href="#DejaVuSans-8722"/>
       <use x="83.789062" xlink:href="#DejaVuSans-48"/>
       <use x="147.412109" xlink:href="#DejaVuSans-46"/>
       <use x="179.199219" xlink:href="#DejaVuSans-52"/>
      </g>
     </g>
    </g>
    <g id="ytick_6">
     <g id="text_18">
      <!-- 0.0 -->
      <g transform="translate(590.756687 110.340172)scale(0.234 -0.234)">
       <use xlink:href="#DejaVuSans-48"/>
       <use x="63.623047" xlink:href="#DejaVuSans-46"/>
       <use x="95.410156" xlink:href="#DejaVuSans-48"/>
      </g>
     </g>
    </g>
   </g>
   <g id="line2d_23">
    <path clip-path="url(#pef775276d8)" d="M 637.47 219.994606
L 671.907857 204.753334
L 706.345714 179.855694
L 740.783571 159.099753
L 775.221429 138.999698
L 809.659286 123.089498
L 844.097143 112.439084
L 878.535 106.105187
L 912.972857 103.243571
L 947.410714 101.858929
L 981.848571 101.497052
L 1016.286429 101.442975
L 1050.724286 101.457029
L 1085.162143 101.449676
L 1119.6 101.449394
" style="fill:none;stroke:#d62728;stroke-linecap:square;stroke-width:8;"/>
   </g>
   <g id="line2d_24">
    <path clip-path="url(#pef775276d8)" d="M 637.47 219.994606
L 671.907857 204.753334
L 706.345714 179.855694
L 740.783571 163.180242
L 775.221429 144.623533
L 809.659286 128.874262
L 844.097143 116.807118
L 878.535 108.55282
L 912.972857 104.68951
L 947.410714 102.585999
L 981.848571 101.973425
L 1016.286429 101.685197
L 1050.724286 101.570329
L 1085.162143 101.508691
L 1119.6 101.485617
" style="fill:none;stroke:#d62728;stroke-linecap:square;stroke-opacity:0.2;stroke-width:2;"/>
   </g>
   <g id="line2d_25">
    <path clip-path="url(#pef775276d8)" d="M 637.47 219.994606
L 671.907857 204.753334
L 706.345714 179.855694
L 740.783571 155.019264
L 775.221429 133.375863
L 809.659286 117.304734
L 844.097143 108.071051
L 878.535 103.657554
L 912.972857 101.797632
L 947.410714 101.13186
L 981.848571 101.020678
L 1016.286429 101.200753
L 1050.724286 101.34373
L 1085.162143 101.390662
L 1119.6 101.41317
" style="fill:none;stroke:#d62728;stroke-linecap:square;stroke-opacity:0.2;stroke-width:2;"/>
   </g>
   <g id="line2d_26">
    <path clip-path="url(#pef775276d8)" d="M 637.47 339.820903
L 671.907857 321.785444
L 706.345714 297.943863
L 740.783571 277.448139
L 775.221429 255.09487
L 809.659286 232.978183
L 844.097143 211.885476
L 878.535 190.669667
L 912.972857 170.074642
L 947.410714 150.362451
L 981.848571 132.615715
L 1016.286429 118.354483
L 1050.724286 109.114483
L 1085.162143 104.601819
L 1119.6 102.7786
" style="fill:none;stroke:#1f77b4;stroke-linecap:square;stroke-width:8;"/>
   </g>
   <g id="line2d_27">
    <path clip-path="url(#pef775276d8)" d="M 637.47 339.820903
L 671.907857 321.785444
L 706.345714 297.943863
L 740.783571 277.70138
L 775.221429 255.364511
L 809.659286 233.251656
L 844.097143 212.155447
L 878.535 190.927649
L 912.972857 170.340252
L 947.410714 150.600584
L 981.848571 132.837964
L 1016.286429 118.529066
L 1050.724286 109.226684
L 1085.162143 104.662671
L 1119.6 102.814842
" style="fill:none;stroke:#1f77b4;stroke-linecap:square;stroke-opacity:0.2;stroke-width:2;"/>
   </g>
   <g id="line2d_28">
    <path clip-path="url(#pef775276d8)" d="M 637.47 339.820903
L 671.907857 321.785444
L 706.345714 297.943863
L 740.783571 277.194898
L 775.221429 254.825228
L 809.659286 232.70471
L 844.097143 211.615505
L 878.535 190.411684
L 912.972857 169.809031
L 947.410714 150.124318
L 981.848571 132.393466
L 1016.286429 118.179899
L 1050.724286 109.002282
L 1085.162143 104.540967
L 1119.6 102.742358
" style="fill:none;stroke:#1f77b4;stroke-linecap:square;stroke-opacity:0.2;stroke-width:2;"/>
   </g>
   <g id="line2d_29">
    <path clip-path="url(#pef775276d8)" d="M 637.47 306.766484
L 671.907857 288.731024
L 706.345714 264.889443
L 740.783571 244.430815
L 775.221429 222.131999
L 809.659286 200.150123
L 844.097143 179.336289
L 878.535 158.752404
L 912.972857 139.577161
L 947.410714 122.68784
L 981.848571 110.209339
L 1016.286429 103.532654
L 1050.724286 101.646948
L 1085.162143 101.452642
L 1119.6 101.449447
" style="fill:none;stroke:#2ca02c;stroke-linecap:square;stroke-width:8;"/>
   </g>
   <g id="line2d_30">
    <path clip-path="url(#pef775276d8)" d="M 637.47 306.766484
L 671.907857 288.731024
L 706.345714 264.889443
L 740.783571 245.161512
L 775.221429 222.910019
L 809.659286 200.933564
L 844.097143 180.110473
L 878.535 159.485714
L 912.972857 140.312408
L 947.410714 123.308659
L 981.848571 110.72264
L 1016.286429 103.855473
L 1050.724286 101.807382
L 1085.162143 101.521355
L 1119.6 101.488787
" style="fill:none;stroke:#2ca02c;stroke-linecap:square;stroke-opacity:0.2;stroke-width:2;"/>
   </g>
   <g id="line2d_31">
    <path clip-path="url(#pef775276d8)" d="M 637.47 306.766484
L 671.907857 288.731024
L 706.345714 264.889443
L 740.783571 243.700117
L 775.221429 221.353979
L 809.659286 199.366682
L 844.097143 178.562104
L 878.535 158.019094
L 912.972857 138.841914
L 947.410714 122.06702
L 981.848571 109.696038
L 1016.286429 103.209835
L 1050.724286 101.486514
L 1085.162143 101.383928
L 1119.6 101.410107
" style="fill:none;stroke:#2ca02c;stroke-linecap:square;stroke-opacity:0.2;stroke-width:2;"/>
   </g>
   <g id="line2d_32">
    <path clip-path="url(#pef775276d8)" d="M 733.896 341.1
L 733.896 53.52
" style="fill:none;stroke:#000000;stroke-dasharray:7.4,3.2;stroke-dashoffset:0;stroke-opacity:0.2;stroke-width:2;"/>
   </g>
   <g id="line2d_33">
    <path clip-path="url(#pef775276d8)" d="M 830.322 341.1
L 830.322 53.52
" style="fill:none;stroke:#000000;stroke-dasharray:7.4,3.2;stroke-dashoffset:0;stroke-opacity:0.2;stroke-width:2;"/>
   </g>
   <g id="line2d_34">
    <path clip-path="url(#pef775276d8)" d="M 926.748 341.1
L 926.748 53.52
" style="fill:none;stroke:#000000;stroke-dasharray:7.4,3.2;stroke-dashoffset:0;stroke-opacity:0.2;stroke-width:2;"/>
   </g>
   <g id="line2d_35">
    <path clip-path="url(#pef775276d8)" d="M 1023.174 341.1
L 1023.174 53.52
" style="fill:none;stroke:#000000;stroke-dasharray:7.4,3.2;stroke-dashoffset:0;stroke-opacity:0.2;stroke-width:2;"/>
   </g>
   <g id="line2d_36">
    <path clip-path="url(#pef775276d8)" d="M 637.47 293.17
L 1119.6 293.17
" style="fill:none;stroke:#000000;stroke-dasharray:7.4,3.2;stroke-dashoffset:0;stroke-opacity:0.2;stroke-width:2;"/>
   </g>
   <g id="line2d_37">
    <path clip-path="url(#pef775276d8)" d="M 637.47 197.31
L 1119.6 197.31
" style="fill:none;stroke:#000000;stroke-dasharray:7.4,3.2;stroke-dashoffset:0;stroke-opacity:0.2;stroke-width:2;"/>
   </g>
   <g id="line2d_38">
    <path clip-path="url(#pef775276d8)" d="M 637.47 101.45
L 1119.6 101.45
" style="fill:none;stroke:#000000;stroke-dasharray:7.4,3.2;stroke-dashoffset:0;stroke-opacity:0.2;stroke-width:2;"/>
   </g>
   <g id="text_19">
    <!-- $\alpha = 10$ -->
    <g transform="translate(837.455 47.52)scale(0.26 -0.26)">
     <use transform="translate(0 0.78125)" xlink:href="#DejaVuSans-Oblique-945"/>
     <use transform="translate(85.400391 0.78125)" xlink:href="#DejaVuSans-61"/>
     <use transform="translate(188.671875 0.78125)" xlink:href="#DejaVuSans-49"/>
     <use transform="translate(252.294922 0.78125)" xlink:href="#DejaVuSans-48"/>
    </g>
   </g>
  </g>
 </g>
 <defs>
  <clipPath id="pbfcd645aa2">
   <rect height="287.58" width="482.13" x="56.56" y="53.52"/>
  </clipPath>
  <clipPath id="pef775276d8">
   <rect height="287.58" width="482.13" x="637.47" y="53.52"/>
  </clipPath>
 </defs>
</svg>
